%
M48
M72
T01C0.0236
T02C0.0394
T03C0.0433
T04C0.0787
%
T01
X20000Y20500
X19750Y9500
X5250Y18000
X5250Y9000
X7250Y17000
X7250Y21000
X3250Y18000
X3250Y20500
X750Y13500
X1750Y20000
X4250Y12500
X3750Y19500
X1750Y19000
X2750Y7500
X6750Y9000
X6750Y7000
X11000Y9000
X11000Y6750
X15750Y8500
X15750Y7000
X18500Y6750
X18500Y4500
X20250Y6750
X20250Y4500
X21750Y6750
X21750Y4500
X23500Y6750
X23500Y4500
X4250Y17000
X4250Y23250
X9750Y17500
X9750Y23250
X3250Y10000
X2750Y21750
X6250Y10000
X6250Y23250
X4250Y6000
T02
X24000Y21500
X23000Y21500
X24000Y20500
X23000Y20500
X24000Y19500
X23000Y19500
X24000Y18500
X23000Y18500
X24000Y17500
X23000Y17500
X24000Y16500
X23000Y16500
X24000Y15500
X23000Y15500
X24000Y14500
X23000Y14500
X24000Y13500
X23000Y13500
X24000Y12500
X23000Y12500
X24000Y11500
X23000Y11500
X24000Y10500
X23000Y10500
X24000Y9500
X23000Y9500
X24000Y8500
X23000Y8500
X23000Y23500
T03
X7683Y1461
X9061Y1461
X10439Y1461
X11817Y1461
X7750Y10000
X7750Y12000
X8750Y17000
X8750Y16000
X10750Y10000
X10750Y12000
X11750Y17000
X11750Y16000
X13683Y1461
X15061Y1461
X16439Y1461
X17817Y1461
X13750Y10000
X13750Y12000
X14750Y17000
X14750Y16000
X16750Y10000
X16750Y12000
X17750Y17000
X17750Y16000
X1683Y1461
X3061Y1461
X4439Y1461
X5817Y1461
X19683Y1461
X21061Y1461
X22439Y1461
X23817Y1461
X2939Y23539
X1561Y23539
T04
X2000Y13000
M30
