G75*
G70*
%OFA0B0*%
%FSLAX24Y24*%
%IPPOS*%
%LPD*%
%AMOC8*
5,1,8,0,0,1.08239X$1,22.5*
%
%ADD10C,0.0000*%
%ADD11OC8,0.0594*%
%ADD12C,0.0669*%
%ADD13C,0.0660*%
%ADD14C,0.0356*%
%ADD15C,0.0400*%
%ADD16C,0.0160*%
%ADD17OC8,0.0591*%
D10*
X000101Y000101D02*
X000101Y025298D01*
X025298Y025298D01*
X025298Y000101D01*
X000101Y000101D01*
X001707Y013101D02*
X001709Y013140D01*
X001715Y013179D01*
X001725Y013217D01*
X001738Y013254D01*
X001755Y013289D01*
X001775Y013323D01*
X001799Y013354D01*
X001826Y013383D01*
X001855Y013409D01*
X001887Y013432D01*
X001921Y013452D01*
X001957Y013468D01*
X001994Y013480D01*
X002033Y013489D01*
X002072Y013494D01*
X002111Y013495D01*
X002150Y013492D01*
X002189Y013485D01*
X002226Y013474D01*
X002263Y013460D01*
X002298Y013442D01*
X002331Y013421D01*
X002362Y013396D01*
X002390Y013369D01*
X002415Y013339D01*
X002437Y013306D01*
X002456Y013272D01*
X002471Y013236D01*
X002483Y013198D01*
X002491Y013160D01*
X002495Y013121D01*
X002495Y013081D01*
X002491Y013042D01*
X002483Y013004D01*
X002471Y012966D01*
X002456Y012930D01*
X002437Y012896D01*
X002415Y012863D01*
X002390Y012833D01*
X002362Y012806D01*
X002331Y012781D01*
X002298Y012760D01*
X002263Y012742D01*
X002226Y012728D01*
X002189Y012717D01*
X002150Y012710D01*
X002111Y012707D01*
X002072Y012708D01*
X002033Y012713D01*
X001994Y012722D01*
X001957Y012734D01*
X001921Y012750D01*
X001887Y012770D01*
X001855Y012793D01*
X001826Y012819D01*
X001799Y012848D01*
X001775Y012879D01*
X001755Y012913D01*
X001738Y012948D01*
X001725Y012985D01*
X001715Y013023D01*
X001709Y013062D01*
X001707Y013101D01*
D11*
X023101Y012601D03*
X023101Y013601D03*
X023101Y014601D03*
X023101Y015601D03*
X023101Y016601D03*
X023101Y017601D03*
X023101Y018601D03*
X023101Y019601D03*
X023101Y020601D03*
X023101Y021601D03*
X024101Y021601D03*
X024101Y020601D03*
X024101Y019601D03*
X024101Y018601D03*
X024101Y017601D03*
X024101Y016601D03*
X024101Y015601D03*
X024101Y014601D03*
X024101Y013601D03*
X024101Y012601D03*
X024101Y011601D03*
X024101Y010601D03*
X024101Y009601D03*
X024101Y008601D03*
X023101Y008601D03*
X023101Y009601D03*
X023101Y010601D03*
X023101Y011601D03*
D12*
X022540Y001561D03*
X021162Y001561D03*
X019784Y001561D03*
X017918Y001561D03*
X016540Y001561D03*
X015162Y001561D03*
X013784Y001561D03*
X011918Y001561D03*
X010540Y001561D03*
X009162Y001561D03*
X007784Y001561D03*
X005918Y001561D03*
X004540Y001561D03*
X003162Y001561D03*
X001784Y001561D03*
X001662Y023640D03*
X003040Y023640D03*
X023918Y001561D03*
D13*
X016851Y010101D03*
X016851Y012101D03*
X013851Y012101D03*
X013851Y010101D03*
X010851Y010101D03*
X010851Y012101D03*
X007851Y012101D03*
X007851Y010101D03*
X008851Y016101D03*
X008851Y017101D03*
X011851Y017101D03*
X011851Y016101D03*
X014851Y016101D03*
X014851Y017101D03*
X017851Y017101D03*
X017851Y016101D03*
D14*
X020101Y020601D03*
X009851Y023351D03*
X007351Y021101D03*
X006351Y023351D03*
X004351Y023351D03*
X002851Y021851D03*
X003351Y020601D03*
X003851Y019601D03*
X003351Y018101D03*
X004351Y017101D03*
X005351Y018101D03*
X007351Y017101D03*
X009851Y017601D03*
X004351Y012601D03*
X003351Y010101D03*
X005351Y009101D03*
X006351Y010101D03*
X006851Y009101D03*
X006851Y007101D03*
X004351Y006101D03*
X002851Y007601D03*
X000851Y013601D03*
X001851Y019101D03*
X001851Y020101D03*
X011101Y009101D03*
X011101Y006851D03*
X015851Y007101D03*
X015851Y008601D03*
X018601Y006851D03*
X020351Y006851D03*
X021851Y006851D03*
X023601Y006851D03*
X023601Y004601D03*
X021851Y004601D03*
X020351Y004601D03*
X018601Y004601D03*
X019851Y009601D03*
D15*
X020101Y009601D01*
X020101Y020601D01*
X020101Y023601D01*
X019101Y024601D01*
X002351Y024601D01*
X001662Y023912D01*
X001662Y023640D01*
D16*
X001690Y023612D02*
X001690Y023668D01*
X002176Y023668D01*
X002176Y023681D01*
X002164Y023761D01*
X002139Y023838D01*
X002102Y023910D01*
X002054Y023975D01*
X001997Y024033D01*
X001932Y024080D01*
X001859Y024117D01*
X001782Y024142D01*
X001702Y024155D01*
X001690Y024155D01*
X001690Y023669D01*
X001633Y023669D01*
X001633Y024155D01*
X001621Y024155D01*
X001541Y024142D01*
X001464Y024117D01*
X001392Y024080D01*
X001327Y024033D01*
X001269Y023975D01*
X001222Y023910D01*
X001185Y023838D01*
X001160Y023761D01*
X001147Y023681D01*
X001147Y023668D01*
X001633Y023668D01*
X001633Y023612D01*
X001147Y023612D01*
X001147Y023600D01*
X001160Y023520D01*
X001185Y023443D01*
X001222Y023370D01*
X001269Y023305D01*
X001327Y023248D01*
X001392Y023200D01*
X001464Y023163D01*
X001541Y023138D01*
X001621Y023126D01*
X001633Y023126D01*
X001633Y023612D01*
X001690Y023612D01*
X002176Y023612D01*
X002176Y023600D01*
X002164Y023520D01*
X002139Y023443D01*
X002102Y023370D01*
X002054Y023305D01*
X001997Y023248D01*
X001932Y023200D01*
X001859Y023163D01*
X001782Y023138D01*
X001702Y023126D01*
X001690Y023126D01*
X001690Y023612D01*
X001690Y023565D02*
X001633Y023565D01*
X001633Y023407D02*
X001690Y023407D01*
X001690Y023248D02*
X001633Y023248D01*
X001326Y023248D02*
X000601Y023248D01*
X000601Y023090D02*
X002551Y023090D01*
X002624Y023017D02*
X002417Y023224D01*
X002305Y023494D01*
X002305Y023786D01*
X002417Y024056D01*
X002624Y024263D01*
X002894Y024375D01*
X003186Y024375D01*
X003456Y024263D01*
X003663Y024056D01*
X003774Y023786D01*
X003774Y023494D01*
X003663Y023224D01*
X003456Y023017D01*
X003186Y022906D01*
X002894Y022906D01*
X002624Y023017D01*
X002832Y022931D02*
X000601Y022931D01*
X000601Y022772D02*
X003871Y022772D01*
X003871Y022614D02*
X000601Y022614D01*
X000601Y022455D02*
X003871Y022455D01*
X003871Y022297D02*
X003222Y022297D01*
X003178Y022341D02*
X002966Y022429D01*
X002736Y022429D01*
X002523Y022341D01*
X002361Y022178D01*
X002273Y021966D01*
X002273Y021736D01*
X002361Y021523D01*
X002371Y021513D01*
X002371Y020356D01*
X002341Y020428D01*
X002178Y020591D01*
X001966Y020679D01*
X001736Y020679D01*
X001523Y020591D01*
X001361Y020428D01*
X001273Y020216D01*
X001273Y020201D01*
X001079Y020008D01*
X000944Y019873D01*
X000871Y019696D01*
X000871Y014300D01*
X000750Y014179D01*
X000736Y014179D01*
X000601Y014123D01*
X000601Y024601D01*
X024601Y024601D01*
X024601Y022086D01*
X024389Y022298D01*
X023812Y022298D01*
X023601Y022086D01*
X023389Y022298D01*
X022812Y022298D01*
X022404Y021889D01*
X022404Y021312D01*
X022771Y020945D01*
X022624Y020798D01*
X022624Y020619D01*
X023082Y020619D01*
X023082Y020582D01*
X022624Y020582D01*
X022624Y020403D01*
X022771Y020256D01*
X022404Y019889D01*
X022404Y019312D01*
X022615Y019101D01*
X022404Y018889D01*
X022404Y018312D01*
X022615Y018101D01*
X022404Y017889D01*
X022404Y017312D01*
X022615Y017101D01*
X022404Y016889D01*
X022404Y016312D01*
X022615Y016101D01*
X022404Y015889D01*
X022404Y015312D01*
X022615Y015101D01*
X022404Y014889D01*
X022404Y014312D01*
X022615Y014101D01*
X022404Y013889D01*
X022404Y013312D01*
X022615Y013101D01*
X022404Y012889D01*
X022404Y012312D01*
X022615Y012101D01*
X022404Y011889D01*
X022404Y011312D01*
X022615Y011101D01*
X022404Y010889D01*
X022404Y010312D01*
X022615Y010101D01*
X022404Y009889D01*
X022404Y009312D01*
X022615Y009101D01*
X022404Y008889D01*
X022404Y008312D01*
X022812Y007904D01*
X023389Y007904D01*
X023601Y008115D01*
X023812Y007904D01*
X024389Y007904D01*
X024601Y008115D01*
X024601Y001832D01*
X024540Y001978D01*
X024334Y002184D01*
X024064Y002296D01*
X023772Y002296D01*
X023502Y002184D01*
X023295Y001978D01*
X023229Y001818D01*
X023163Y001978D01*
X022956Y002184D01*
X022686Y002296D01*
X022394Y002296D01*
X022124Y002184D01*
X021917Y001978D01*
X021851Y001818D01*
X021785Y001978D01*
X021578Y002184D01*
X021308Y002296D01*
X021016Y002296D01*
X020746Y002184D01*
X020539Y001978D01*
X020473Y001818D01*
X020407Y001978D01*
X020200Y002184D01*
X019930Y002296D01*
X019638Y002296D01*
X019368Y002184D01*
X019161Y001978D01*
X019049Y001708D01*
X019049Y001415D01*
X019161Y001145D01*
X019368Y000939D01*
X019638Y000827D01*
X019930Y000827D01*
X020200Y000939D01*
X020407Y001145D01*
X020473Y001305D01*
X020539Y001145D01*
X020746Y000939D01*
X021016Y000827D01*
X021308Y000827D01*
X021578Y000939D01*
X021785Y001145D01*
X021851Y001305D01*
X021917Y001145D01*
X022124Y000939D01*
X022394Y000827D01*
X022686Y000827D01*
X022956Y000939D01*
X023163Y001145D01*
X023229Y001305D01*
X023295Y001145D01*
X023502Y000939D01*
X023772Y000827D01*
X024064Y000827D01*
X024334Y000939D01*
X024540Y001145D01*
X024601Y001291D01*
X024601Y000601D01*
X000601Y000601D01*
X000601Y013079D01*
X000736Y013023D01*
X000871Y013023D01*
X000871Y009005D01*
X000944Y008829D01*
X001079Y008694D01*
X002273Y007500D01*
X002273Y007486D01*
X002361Y007273D01*
X002523Y007111D01*
X002736Y007023D01*
X002966Y007023D01*
X003178Y007111D01*
X003341Y007273D01*
X003429Y007486D01*
X003429Y007716D01*
X003341Y007928D01*
X003178Y008091D01*
X002966Y008179D01*
X002951Y008179D01*
X001831Y009300D01*
X001831Y012354D01*
X001943Y012307D01*
X002259Y012307D01*
X002371Y012354D01*
X002371Y010505D01*
X002444Y010329D01*
X002579Y010194D01*
X002773Y010000D01*
X002773Y009986D01*
X002861Y009773D01*
X003023Y009611D01*
X003236Y009523D01*
X003250Y009523D01*
X003871Y008902D01*
X003871Y006438D01*
X003861Y006428D01*
X003773Y006216D01*
X003773Y005986D01*
X003861Y005773D01*
X004023Y005611D01*
X004236Y005523D01*
X004466Y005523D01*
X004678Y005611D01*
X004841Y005773D01*
X004929Y005986D01*
X004929Y006216D01*
X004841Y006428D01*
X004831Y006438D01*
X004831Y009196D01*
X004758Y009373D01*
X004623Y009508D01*
X003929Y010201D01*
X003929Y010216D01*
X003841Y010428D01*
X003678Y010591D01*
X003466Y010679D01*
X003451Y010679D01*
X003331Y010800D01*
X003331Y017523D01*
X003371Y017523D01*
X003371Y013005D01*
X003444Y012829D01*
X003579Y012694D01*
X003773Y012500D01*
X003773Y012486D01*
X003861Y012273D01*
X004023Y012111D01*
X004236Y012023D01*
X004466Y012023D01*
X004678Y012111D01*
X004841Y012273D01*
X004929Y012486D01*
X004929Y012716D01*
X004841Y012928D01*
X004678Y013091D01*
X004466Y013179D01*
X004451Y013179D01*
X004331Y013300D01*
X004331Y016523D01*
X004466Y016523D01*
X004678Y016611D01*
X004841Y016773D01*
X004929Y016986D01*
X004929Y017216D01*
X004841Y017428D01*
X004831Y017438D01*
X004831Y023013D01*
X004841Y023023D01*
X004929Y023236D01*
X004929Y023466D01*
X004841Y023678D01*
X004678Y023841D01*
X004466Y023929D01*
X004236Y023929D01*
X004023Y023841D01*
X003861Y023678D01*
X003773Y023466D01*
X003773Y023236D01*
X003861Y023023D01*
X003871Y023013D01*
X003871Y020856D01*
X003841Y020928D01*
X003678Y021091D01*
X003466Y021179D01*
X003331Y021179D01*
X003331Y021513D01*
X003341Y021523D01*
X003429Y021736D01*
X003429Y021966D01*
X003341Y022178D01*
X003178Y022341D01*
X003357Y022138D02*
X003871Y022138D01*
X003871Y021980D02*
X003423Y021980D01*
X003429Y021821D02*
X003871Y021821D01*
X003871Y021663D02*
X003399Y021663D01*
X003331Y021504D02*
X003871Y021504D01*
X003871Y021346D02*
X003331Y021346D01*
X003331Y021187D02*
X003871Y021187D01*
X003871Y021029D02*
X003741Y021029D01*
X003865Y020870D02*
X003871Y020870D01*
X003351Y020601D02*
X003351Y018101D01*
X003331Y017382D02*
X003371Y017382D01*
X003371Y017223D02*
X003331Y017223D01*
X003331Y017065D02*
X003371Y017065D01*
X003371Y016906D02*
X003331Y016906D01*
X003331Y016748D02*
X003371Y016748D01*
X003371Y016589D02*
X003331Y016589D01*
X003331Y016431D02*
X003371Y016431D01*
X003371Y016272D02*
X003331Y016272D01*
X003331Y016114D02*
X003371Y016114D01*
X003371Y015955D02*
X003331Y015955D01*
X003331Y015797D02*
X003371Y015797D01*
X003371Y015638D02*
X003331Y015638D01*
X003331Y015479D02*
X003371Y015479D01*
X003371Y015321D02*
X003331Y015321D01*
X003331Y015162D02*
X003371Y015162D01*
X003371Y015004D02*
X003331Y015004D01*
X003331Y014845D02*
X003371Y014845D01*
X003371Y014687D02*
X003331Y014687D01*
X003331Y014528D02*
X003371Y014528D01*
X003371Y014370D02*
X003331Y014370D01*
X003331Y014211D02*
X003371Y014211D01*
X003371Y014053D02*
X003331Y014053D01*
X003331Y013894D02*
X003371Y013894D01*
X003371Y013736D02*
X003331Y013736D01*
X003331Y013577D02*
X003371Y013577D01*
X003371Y013418D02*
X003331Y013418D01*
X003331Y013260D02*
X003371Y013260D01*
X003371Y013101D02*
X003331Y013101D01*
X003331Y012943D02*
X003397Y012943D01*
X003331Y012784D02*
X003488Y012784D01*
X003331Y012626D02*
X003647Y012626D01*
X003780Y012467D02*
X003331Y012467D01*
X003331Y012309D02*
X003846Y012309D01*
X003984Y012150D02*
X003331Y012150D01*
X003331Y011992D02*
X005871Y011992D01*
X005871Y012150D02*
X004718Y012150D01*
X004855Y012309D02*
X005871Y012309D01*
X005871Y012467D02*
X004921Y012467D01*
X004929Y012626D02*
X005871Y012626D01*
X005871Y012784D02*
X004901Y012784D01*
X004826Y012943D02*
X005871Y012943D01*
X005871Y013101D02*
X004653Y013101D01*
X004370Y013260D02*
X005871Y013260D01*
X005871Y013418D02*
X004331Y013418D01*
X004331Y013577D02*
X005871Y013577D01*
X005871Y013736D02*
X004331Y013736D01*
X004331Y013894D02*
X005871Y013894D01*
X005871Y014053D02*
X004331Y014053D01*
X004331Y014211D02*
X005871Y014211D01*
X005871Y014370D02*
X004331Y014370D01*
X004331Y014528D02*
X005871Y014528D01*
X005871Y014687D02*
X004331Y014687D01*
X004331Y014845D02*
X005871Y014845D01*
X005871Y015004D02*
X004331Y015004D01*
X004331Y015162D02*
X005871Y015162D01*
X005871Y015321D02*
X004331Y015321D01*
X004331Y015479D02*
X005871Y015479D01*
X005871Y015638D02*
X004331Y015638D01*
X004331Y015797D02*
X005871Y015797D01*
X005871Y015955D02*
X004331Y015955D01*
X004331Y016114D02*
X005871Y016114D01*
X005871Y016272D02*
X004331Y016272D01*
X004331Y016431D02*
X005871Y016431D01*
X005871Y016589D02*
X004627Y016589D01*
X004815Y016748D02*
X005871Y016748D01*
X005871Y016906D02*
X004896Y016906D01*
X004929Y017065D02*
X005871Y017065D01*
X005871Y017223D02*
X004926Y017223D01*
X004860Y017382D02*
X005871Y017382D01*
X005871Y017541D02*
X004831Y017541D01*
X004831Y017699D02*
X005871Y017699D01*
X005871Y017858D02*
X004831Y017858D01*
X004831Y018016D02*
X005871Y018016D01*
X005871Y018175D02*
X004831Y018175D01*
X004831Y018333D02*
X005871Y018333D01*
X005871Y018492D02*
X004831Y018492D01*
X004831Y018650D02*
X005871Y018650D01*
X005871Y018809D02*
X004831Y018809D01*
X004831Y018967D02*
X005871Y018967D01*
X005871Y019126D02*
X004831Y019126D01*
X004831Y019285D02*
X005871Y019285D01*
X005871Y019443D02*
X004831Y019443D01*
X004831Y019602D02*
X005871Y019602D01*
X005871Y019760D02*
X004831Y019760D01*
X004831Y019919D02*
X005871Y019919D01*
X005871Y020077D02*
X004831Y020077D01*
X004831Y020236D02*
X005871Y020236D01*
X005871Y020394D02*
X004831Y020394D01*
X004831Y020553D02*
X005871Y020553D01*
X005871Y020711D02*
X004831Y020711D01*
X004831Y020870D02*
X005871Y020870D01*
X005871Y021029D02*
X004831Y021029D01*
X004831Y021187D02*
X005871Y021187D01*
X005871Y021346D02*
X004831Y021346D01*
X004831Y021504D02*
X005871Y021504D01*
X005871Y021663D02*
X004831Y021663D01*
X004831Y021821D02*
X005871Y021821D01*
X005871Y021980D02*
X004831Y021980D01*
X004831Y022138D02*
X005871Y022138D01*
X005871Y022297D02*
X004831Y022297D01*
X004831Y022455D02*
X005871Y022455D01*
X005871Y022614D02*
X004831Y022614D01*
X004831Y022772D02*
X005871Y022772D01*
X005871Y022931D02*
X004831Y022931D01*
X004868Y023090D02*
X005833Y023090D01*
X005861Y023023D02*
X005871Y023013D01*
X005871Y010438D01*
X005861Y010428D01*
X005773Y010216D01*
X005773Y009986D01*
X005861Y009773D01*
X006023Y009611D01*
X006236Y009523D01*
X006371Y009523D01*
X006371Y009505D01*
X006390Y009458D01*
X006361Y009428D01*
X006273Y009216D01*
X006273Y008986D01*
X006361Y008773D01*
X006371Y008763D01*
X006371Y007438D01*
X006361Y007428D01*
X006273Y007216D01*
X006273Y006986D01*
X006361Y006773D01*
X006523Y006611D01*
X006736Y006523D01*
X006966Y006523D01*
X007178Y006611D01*
X007341Y006773D01*
X007371Y006846D01*
X007371Y002185D01*
X007368Y002184D01*
X007161Y001978D01*
X007049Y001708D01*
X007049Y001415D01*
X007161Y001145D01*
X007368Y000939D01*
X007638Y000827D01*
X007930Y000827D01*
X008200Y000939D01*
X008407Y001145D01*
X008473Y001305D01*
X008539Y001145D01*
X008746Y000939D01*
X009016Y000827D01*
X009308Y000827D01*
X009578Y000939D01*
X009785Y001145D01*
X009851Y001305D01*
X009917Y001145D01*
X010124Y000939D01*
X010394Y000827D01*
X010686Y000827D01*
X010956Y000939D01*
X011163Y001145D01*
X011229Y001305D01*
X011295Y001145D01*
X011502Y000939D01*
X011772Y000827D01*
X012064Y000827D01*
X012334Y000939D01*
X012540Y001145D01*
X012652Y001415D01*
X012652Y001708D01*
X012540Y001978D01*
X012334Y002184D01*
X012331Y002185D01*
X012331Y009196D01*
X012258Y009373D01*
X012123Y009508D01*
X011581Y010050D01*
X011581Y010246D01*
X011470Y010514D01*
X011264Y010720D01*
X010996Y010831D01*
X010706Y010831D01*
X010437Y010720D01*
X010331Y010613D01*
X010331Y011402D01*
X010424Y011495D01*
X010437Y011482D01*
X010706Y011371D01*
X010996Y011371D01*
X011264Y011482D01*
X011470Y011687D01*
X011581Y011956D01*
X011581Y012246D01*
X011470Y012514D01*
X011264Y012720D01*
X010996Y012831D01*
X010706Y012831D01*
X010437Y012720D01*
X010298Y012581D01*
X010255Y012581D01*
X010079Y012508D01*
X009444Y011873D01*
X009371Y011696D01*
X009371Y011505D01*
X009371Y002693D01*
X009369Y002689D01*
X009371Y002598D01*
X009371Y002505D01*
X009372Y002502D01*
X009372Y002498D01*
X009409Y002414D01*
X009444Y002329D01*
X009446Y002326D01*
X009448Y002323D01*
X009513Y002259D01*
X009579Y002194D01*
X009582Y002192D01*
X009884Y001899D01*
X009851Y001818D01*
X009785Y001978D01*
X009578Y002184D01*
X009331Y002287D01*
X009331Y009196D01*
X009258Y009373D01*
X009123Y009508D01*
X008581Y010050D01*
X008581Y010246D01*
X008470Y010514D01*
X008264Y010720D01*
X007996Y010831D01*
X007706Y010831D01*
X007437Y010720D01*
X007331Y010613D01*
X007331Y011402D01*
X007424Y011495D01*
X007437Y011482D01*
X007706Y011371D01*
X007996Y011371D01*
X008264Y011482D01*
X008470Y011687D01*
X008581Y011956D01*
X008581Y012246D01*
X008470Y012514D01*
X008264Y012720D01*
X007996Y012831D01*
X007706Y012831D01*
X007437Y012720D01*
X007298Y012581D01*
X007255Y012581D01*
X007079Y012508D01*
X006831Y012260D01*
X006831Y016846D01*
X006861Y016773D01*
X007023Y016611D01*
X007236Y016523D01*
X007466Y016523D01*
X007678Y016611D01*
X007841Y016773D01*
X007929Y016986D01*
X007929Y017216D01*
X007841Y017428D01*
X007831Y017438D01*
X007831Y020763D01*
X007841Y020773D01*
X007929Y020986D01*
X007929Y021216D01*
X007841Y021428D01*
X007678Y021591D01*
X007466Y021679D01*
X007236Y021679D01*
X007023Y021591D01*
X006861Y021428D01*
X006831Y021356D01*
X006831Y023013D01*
X006841Y023023D01*
X006929Y023236D01*
X006929Y023466D01*
X006841Y023678D01*
X006678Y023841D01*
X006466Y023929D01*
X006236Y023929D01*
X006023Y023841D01*
X005861Y023678D01*
X005773Y023466D01*
X005773Y023236D01*
X005861Y023023D01*
X005773Y023248D02*
X004929Y023248D01*
X004929Y023407D02*
X005773Y023407D01*
X005814Y023565D02*
X004888Y023565D01*
X004795Y023724D02*
X005906Y023724D01*
X006123Y023882D02*
X004578Y023882D01*
X004123Y023882D02*
X003735Y023882D01*
X003774Y023724D02*
X003906Y023724D01*
X003814Y023565D02*
X003774Y023565D01*
X003773Y023407D02*
X003738Y023407D01*
X003773Y023248D02*
X003672Y023248D01*
X003528Y023090D02*
X003833Y023090D01*
X003871Y022931D02*
X003247Y022931D01*
X002407Y023248D02*
X001998Y023248D01*
X002120Y023407D02*
X002341Y023407D01*
X002305Y023565D02*
X002171Y023565D01*
X002170Y023724D02*
X002305Y023724D01*
X002345Y023882D02*
X002116Y023882D01*
X001986Y024041D02*
X002411Y024041D01*
X002560Y024199D02*
X000601Y024199D01*
X000601Y024041D02*
X001338Y024041D01*
X001208Y023882D02*
X000601Y023882D01*
X000601Y023724D02*
X001154Y023724D01*
X001153Y023565D02*
X000601Y023565D01*
X000601Y023407D02*
X001203Y023407D01*
X001633Y023724D02*
X001690Y023724D01*
X001690Y023882D02*
X001633Y023882D01*
X001633Y024041D02*
X001690Y024041D01*
X000601Y024358D02*
X002853Y024358D01*
X003227Y024358D02*
X024601Y024358D01*
X024601Y024516D02*
X000601Y024516D01*
X000601Y022297D02*
X002479Y022297D01*
X002344Y022138D02*
X000601Y022138D01*
X000601Y021980D02*
X002279Y021980D01*
X002273Y021821D02*
X000601Y021821D01*
X000601Y021663D02*
X002303Y021663D01*
X002371Y021504D02*
X000601Y021504D01*
X000601Y021346D02*
X002371Y021346D01*
X002371Y021187D02*
X000601Y021187D01*
X000601Y021029D02*
X002371Y021029D01*
X002371Y020870D02*
X000601Y020870D01*
X000601Y020711D02*
X002371Y020711D01*
X002371Y020553D02*
X002216Y020553D01*
X002355Y020394D02*
X002371Y020394D01*
X001851Y020101D02*
X001351Y019601D01*
X001351Y014101D01*
X000851Y013601D01*
X001351Y013351D02*
X001851Y013851D01*
X001851Y019101D01*
X000871Y019126D02*
X000601Y019126D01*
X000601Y019285D02*
X000871Y019285D01*
X000871Y019443D02*
X000601Y019443D01*
X000601Y019602D02*
X000871Y019602D01*
X000897Y019760D02*
X000601Y019760D01*
X000601Y019919D02*
X000990Y019919D01*
X001148Y020077D02*
X000601Y020077D01*
X000601Y020236D02*
X001281Y020236D01*
X001347Y020394D02*
X000601Y020394D01*
X000601Y020553D02*
X001485Y020553D01*
X000871Y018967D02*
X000601Y018967D01*
X000601Y018809D02*
X000871Y018809D01*
X000871Y018650D02*
X000601Y018650D01*
X000601Y018492D02*
X000871Y018492D01*
X000871Y018333D02*
X000601Y018333D01*
X000601Y018175D02*
X000871Y018175D01*
X000871Y018016D02*
X000601Y018016D01*
X000601Y017858D02*
X000871Y017858D01*
X000871Y017699D02*
X000601Y017699D01*
X000601Y017541D02*
X000871Y017541D01*
X000871Y017382D02*
X000601Y017382D01*
X000601Y017223D02*
X000871Y017223D01*
X000871Y017065D02*
X000601Y017065D01*
X000601Y016906D02*
X000871Y016906D01*
X000871Y016748D02*
X000601Y016748D01*
X000601Y016589D02*
X000871Y016589D01*
X000871Y016431D02*
X000601Y016431D01*
X000601Y016272D02*
X000871Y016272D01*
X000871Y016114D02*
X000601Y016114D01*
X000601Y015955D02*
X000871Y015955D01*
X000871Y015797D02*
X000601Y015797D01*
X000601Y015638D02*
X000871Y015638D01*
X000871Y015479D02*
X000601Y015479D01*
X000601Y015321D02*
X000871Y015321D01*
X000871Y015162D02*
X000601Y015162D01*
X000601Y015004D02*
X000871Y015004D01*
X000871Y014845D02*
X000601Y014845D01*
X000601Y014687D02*
X000871Y014687D01*
X000871Y014528D02*
X000601Y014528D01*
X000601Y014370D02*
X000871Y014370D01*
X000782Y014211D02*
X000601Y014211D01*
X001351Y013351D02*
X001351Y009101D01*
X002851Y007601D01*
X003303Y007235D02*
X003871Y007235D01*
X003871Y007077D02*
X003096Y007077D01*
X003391Y007394D02*
X003871Y007394D01*
X003871Y007552D02*
X003429Y007552D01*
X003429Y007711D02*
X003871Y007711D01*
X003871Y007869D02*
X003365Y007869D01*
X003241Y008028D02*
X003871Y008028D01*
X003871Y008186D02*
X002944Y008186D01*
X002785Y008345D02*
X003871Y008345D01*
X003871Y008504D02*
X002627Y008504D01*
X002468Y008662D02*
X003871Y008662D01*
X003871Y008821D02*
X002310Y008821D01*
X002151Y008979D02*
X003794Y008979D01*
X003635Y009138D02*
X001993Y009138D01*
X001834Y009296D02*
X003476Y009296D01*
X003318Y009455D02*
X001831Y009455D01*
X001831Y009613D02*
X003021Y009613D01*
X002862Y009772D02*
X001831Y009772D01*
X001831Y009930D02*
X002796Y009930D01*
X002684Y010089D02*
X001831Y010089D01*
X001831Y010248D02*
X002525Y010248D01*
X002412Y010406D02*
X001831Y010406D01*
X001831Y010565D02*
X002371Y010565D01*
X002371Y010723D02*
X001831Y010723D01*
X001831Y010882D02*
X002371Y010882D01*
X002371Y011040D02*
X001831Y011040D01*
X001831Y011199D02*
X002371Y011199D01*
X002371Y011357D02*
X001831Y011357D01*
X001831Y011516D02*
X002371Y011516D01*
X002371Y011674D02*
X001831Y011674D01*
X001831Y011833D02*
X002371Y011833D01*
X002371Y011992D02*
X001831Y011992D01*
X001831Y012150D02*
X002371Y012150D01*
X002371Y012309D02*
X002262Y012309D01*
X001939Y012309D02*
X001831Y012309D01*
X000871Y012309D02*
X000601Y012309D01*
X000601Y012467D02*
X000871Y012467D01*
X000871Y012626D02*
X000601Y012626D01*
X000601Y012784D02*
X000871Y012784D01*
X000871Y012943D02*
X000601Y012943D01*
X000601Y012150D02*
X000871Y012150D01*
X000871Y011992D02*
X000601Y011992D01*
X000601Y011833D02*
X000871Y011833D01*
X000871Y011674D02*
X000601Y011674D01*
X000601Y011516D02*
X000871Y011516D01*
X000871Y011357D02*
X000601Y011357D01*
X000601Y011199D02*
X000871Y011199D01*
X000871Y011040D02*
X000601Y011040D01*
X000601Y010882D02*
X000871Y010882D01*
X000871Y010723D02*
X000601Y010723D01*
X000601Y010565D02*
X000871Y010565D01*
X000871Y010406D02*
X000601Y010406D01*
X000601Y010248D02*
X000871Y010248D01*
X000871Y010089D02*
X000601Y010089D01*
X000601Y009930D02*
X000871Y009930D01*
X000871Y009772D02*
X000601Y009772D01*
X000601Y009613D02*
X000871Y009613D01*
X000871Y009455D02*
X000601Y009455D01*
X000601Y009296D02*
X000871Y009296D01*
X000871Y009138D02*
X000601Y009138D01*
X000601Y008979D02*
X000882Y008979D01*
X000952Y008821D02*
X000601Y008821D01*
X000601Y008662D02*
X001111Y008662D01*
X001269Y008504D02*
X000601Y008504D01*
X000601Y008345D02*
X001428Y008345D01*
X001586Y008186D02*
X000601Y008186D01*
X000601Y008028D02*
X001745Y008028D01*
X001903Y007869D02*
X000601Y007869D01*
X000601Y007711D02*
X002062Y007711D01*
X002220Y007552D02*
X000601Y007552D01*
X000601Y007394D02*
X002311Y007394D01*
X002399Y007235D02*
X000601Y007235D01*
X000601Y007077D02*
X002605Y007077D01*
X003801Y006284D02*
X000601Y006284D01*
X000601Y006443D02*
X003871Y006443D01*
X003871Y006601D02*
X000601Y006601D01*
X000601Y006760D02*
X003871Y006760D01*
X003871Y006918D02*
X000601Y006918D01*
X000601Y006125D02*
X003773Y006125D01*
X003780Y005967D02*
X000601Y005967D01*
X000601Y005808D02*
X003846Y005808D01*
X003984Y005650D02*
X000601Y005650D01*
X000601Y005491D02*
X007371Y005491D01*
X007371Y005333D02*
X000601Y005333D01*
X000601Y005174D02*
X007371Y005174D01*
X007371Y005016D02*
X000601Y005016D01*
X000601Y004857D02*
X007371Y004857D01*
X007371Y004699D02*
X000601Y004699D01*
X000601Y004540D02*
X007371Y004540D01*
X007371Y004381D02*
X000601Y004381D01*
X000601Y004223D02*
X007371Y004223D01*
X007371Y004064D02*
X000601Y004064D01*
X000601Y003906D02*
X007371Y003906D01*
X007371Y003747D02*
X000601Y003747D01*
X000601Y003589D02*
X007371Y003589D01*
X007371Y003430D02*
X000601Y003430D01*
X000601Y003272D02*
X007371Y003272D01*
X007371Y003113D02*
X000601Y003113D01*
X000601Y002955D02*
X007371Y002955D01*
X007371Y002796D02*
X000601Y002796D01*
X000601Y002637D02*
X007371Y002637D01*
X007371Y002479D02*
X000601Y002479D01*
X000601Y002320D02*
X007371Y002320D01*
X007345Y002162D02*
X006356Y002162D01*
X006334Y002184D02*
X006064Y002296D01*
X005772Y002296D01*
X005502Y002184D01*
X005295Y001978D01*
X005229Y001818D01*
X005163Y001978D01*
X004956Y002184D01*
X004686Y002296D01*
X004394Y002296D01*
X004124Y002184D01*
X003917Y001978D01*
X003851Y001818D01*
X003785Y001978D01*
X003578Y002184D01*
X003308Y002296D01*
X003016Y002296D01*
X002746Y002184D01*
X002539Y001978D01*
X002473Y001818D01*
X002407Y001978D01*
X002200Y002184D01*
X001930Y002296D01*
X001638Y002296D01*
X001368Y002184D01*
X001161Y001978D01*
X001049Y001708D01*
X001049Y001415D01*
X001161Y001145D01*
X001368Y000939D01*
X001638Y000827D01*
X001930Y000827D01*
X002200Y000939D01*
X002407Y001145D01*
X002473Y001305D01*
X002539Y001145D01*
X002746Y000939D01*
X003016Y000827D01*
X003308Y000827D01*
X003578Y000939D01*
X003785Y001145D01*
X003851Y001305D01*
X003917Y001145D01*
X004124Y000939D01*
X004394Y000827D01*
X004686Y000827D01*
X004956Y000939D01*
X005163Y001145D01*
X005229Y001305D01*
X005295Y001145D01*
X005502Y000939D01*
X005772Y000827D01*
X006064Y000827D01*
X006334Y000939D01*
X006540Y001145D01*
X006652Y001415D01*
X006652Y001708D01*
X006540Y001978D01*
X006334Y002184D01*
X006515Y002003D02*
X007187Y002003D01*
X007106Y001845D02*
X006596Y001845D01*
X006652Y001686D02*
X007049Y001686D01*
X007049Y001528D02*
X006652Y001528D01*
X006633Y001369D02*
X007068Y001369D01*
X007134Y001211D02*
X006568Y001211D01*
X006447Y001052D02*
X007254Y001052D01*
X007477Y000894D02*
X006225Y000894D01*
X005610Y000894D02*
X004847Y000894D01*
X005069Y001052D02*
X005388Y001052D01*
X005268Y001211D02*
X005190Y001211D01*
X005218Y001845D02*
X005240Y001845D01*
X005321Y002003D02*
X005137Y002003D01*
X004978Y002162D02*
X005479Y002162D01*
X004101Y002162D02*
X003600Y002162D01*
X003759Y002003D02*
X003943Y002003D01*
X003862Y001845D02*
X003840Y001845D01*
X003812Y001211D02*
X003890Y001211D01*
X004010Y001052D02*
X003691Y001052D01*
X003469Y000894D02*
X004232Y000894D01*
X002855Y000894D02*
X002091Y000894D01*
X002313Y001052D02*
X002632Y001052D01*
X002512Y001211D02*
X002434Y001211D01*
X002462Y001845D02*
X002484Y001845D01*
X002565Y002003D02*
X002381Y002003D01*
X002222Y002162D02*
X002723Y002162D01*
X001345Y002162D02*
X000601Y002162D01*
X000601Y002003D02*
X001187Y002003D01*
X001106Y001845D02*
X000601Y001845D01*
X000601Y001686D02*
X001049Y001686D01*
X001049Y001528D02*
X000601Y001528D01*
X000601Y001369D02*
X001068Y001369D01*
X001134Y001211D02*
X000601Y001211D01*
X000601Y001052D02*
X001254Y001052D01*
X001477Y000894D02*
X000601Y000894D01*
X000601Y000735D02*
X024601Y000735D01*
X024601Y000894D02*
X024225Y000894D01*
X024447Y001052D02*
X024601Y001052D01*
X024601Y001211D02*
X024568Y001211D01*
X024596Y001845D02*
X024601Y001845D01*
X024601Y002003D02*
X024515Y002003D01*
X024601Y002162D02*
X024356Y002162D01*
X024601Y002320D02*
X018331Y002320D01*
X018331Y002185D02*
X018331Y004087D01*
X018486Y004023D01*
X018716Y004023D01*
X018928Y004111D01*
X019091Y004273D01*
X019179Y004486D01*
X019179Y004716D01*
X019091Y004928D01*
X019081Y004938D01*
X019081Y006513D01*
X019091Y006523D01*
X019179Y006736D01*
X019179Y006966D01*
X019091Y007178D01*
X018928Y007341D01*
X018716Y007429D01*
X018486Y007429D01*
X018331Y007365D01*
X018331Y009196D01*
X018258Y009373D01*
X018123Y009508D01*
X017581Y010050D01*
X017581Y010246D01*
X017470Y010514D01*
X017264Y010720D01*
X016996Y010831D01*
X016706Y010831D01*
X016437Y010720D01*
X016331Y010613D01*
X016331Y011402D01*
X016424Y011495D01*
X016437Y011482D01*
X016706Y011371D01*
X016996Y011371D01*
X017264Y011482D01*
X017470Y011687D01*
X017581Y011956D01*
X017581Y012246D01*
X017470Y012514D01*
X017264Y012720D01*
X016996Y012831D01*
X016706Y012831D01*
X016437Y012720D01*
X016298Y012581D01*
X016255Y012581D01*
X016079Y012508D01*
X015579Y012008D01*
X015444Y011873D01*
X015371Y011696D01*
X015371Y009696D01*
X015371Y009505D01*
X015444Y009329D01*
X015635Y009137D01*
X015523Y009091D01*
X015361Y008928D01*
X015331Y008856D01*
X015331Y009196D01*
X015258Y009373D01*
X015123Y009508D01*
X014581Y010050D01*
X014581Y010246D01*
X014470Y010514D01*
X014264Y010720D01*
X013996Y010831D01*
X013706Y010831D01*
X013437Y010720D01*
X013331Y010613D01*
X013331Y011402D01*
X013424Y011495D01*
X013437Y011482D01*
X013706Y011371D01*
X013996Y011371D01*
X014264Y011482D01*
X014470Y011687D01*
X014581Y011956D01*
X014581Y012246D01*
X014470Y012514D01*
X014264Y012720D01*
X013996Y012831D01*
X013706Y012831D01*
X013437Y012720D01*
X013298Y012581D01*
X013255Y012581D01*
X013079Y012508D01*
X012579Y012008D01*
X012444Y011873D01*
X012371Y011696D01*
X012371Y009696D01*
X012371Y009505D01*
X012444Y009329D01*
X013371Y008402D01*
X013371Y002185D01*
X013368Y002184D01*
X013161Y001978D01*
X013049Y001708D01*
X013049Y001415D01*
X013161Y001145D01*
X013368Y000939D01*
X013638Y000827D01*
X013930Y000827D01*
X014200Y000939D01*
X014407Y001145D01*
X014473Y001305D01*
X014539Y001145D01*
X014746Y000939D01*
X015016Y000827D01*
X015308Y000827D01*
X015578Y000939D01*
X015785Y001145D01*
X015851Y001305D01*
X015917Y001145D01*
X016124Y000939D01*
X016394Y000827D01*
X016686Y000827D01*
X016956Y000939D01*
X017163Y001145D01*
X017229Y001305D01*
X017295Y001145D01*
X017502Y000939D01*
X017772Y000827D01*
X018064Y000827D01*
X018334Y000939D01*
X018540Y001145D01*
X018652Y001415D01*
X018652Y001708D01*
X018540Y001978D01*
X018334Y002184D01*
X018331Y002185D01*
X018356Y002162D02*
X019345Y002162D01*
X019187Y002003D02*
X018515Y002003D01*
X018596Y001845D02*
X019106Y001845D01*
X019049Y001686D02*
X018652Y001686D01*
X018652Y001528D02*
X019049Y001528D01*
X019068Y001369D02*
X018633Y001369D01*
X018568Y001211D02*
X019134Y001211D01*
X019254Y001052D02*
X018447Y001052D01*
X018225Y000894D02*
X019477Y000894D01*
X020091Y000894D02*
X020855Y000894D01*
X020632Y001052D02*
X020313Y001052D01*
X020434Y001211D02*
X020512Y001211D01*
X020484Y001845D02*
X020462Y001845D01*
X020381Y002003D02*
X020565Y002003D01*
X020723Y002162D02*
X020222Y002162D01*
X021469Y000894D02*
X022232Y000894D01*
X022010Y001052D02*
X021691Y001052D01*
X021812Y001211D02*
X021890Y001211D01*
X021862Y001845D02*
X021840Y001845D01*
X021759Y002003D02*
X021943Y002003D01*
X022101Y002162D02*
X021600Y002162D01*
X022978Y002162D02*
X023479Y002162D01*
X023321Y002003D02*
X023137Y002003D01*
X023218Y001845D02*
X023240Y001845D01*
X023268Y001211D02*
X023190Y001211D01*
X023069Y001052D02*
X023388Y001052D01*
X023610Y000894D02*
X022847Y000894D01*
X024601Y002479D02*
X018331Y002479D01*
X018331Y002637D02*
X024601Y002637D01*
X024601Y002796D02*
X018331Y002796D01*
X018331Y002955D02*
X024601Y002955D01*
X024601Y003113D02*
X018331Y003113D01*
X018331Y003272D02*
X024601Y003272D01*
X024601Y003430D02*
X018331Y003430D01*
X018331Y003589D02*
X024601Y003589D01*
X024601Y003747D02*
X018331Y003747D01*
X018331Y003906D02*
X024601Y003906D01*
X024601Y004064D02*
X023816Y004064D01*
X023716Y004023D02*
X023486Y004023D01*
X023273Y004111D01*
X023111Y004273D01*
X023023Y004486D01*
X023023Y004716D01*
X023111Y004928D01*
X023121Y004938D01*
X023121Y006513D01*
X023111Y006523D01*
X023023Y006736D01*
X023023Y006966D01*
X023111Y007178D01*
X023273Y007341D01*
X023486Y007429D01*
X023716Y007429D01*
X023928Y007341D01*
X024091Y007178D01*
X024179Y006966D01*
X024179Y006736D01*
X024091Y006523D01*
X024081Y006513D01*
X024081Y004938D01*
X024091Y004928D01*
X024179Y004716D01*
X024179Y004486D01*
X024091Y004273D01*
X023928Y004111D01*
X023716Y004023D01*
X023385Y004064D02*
X022066Y004064D01*
X021966Y004023D02*
X022178Y004111D01*
X022341Y004273D01*
X022429Y004486D01*
X022429Y004716D01*
X022341Y004928D01*
X022331Y004938D01*
X022331Y006513D01*
X022341Y006523D01*
X022429Y006736D01*
X022429Y006966D01*
X022341Y007178D01*
X022178Y007341D01*
X021966Y007429D01*
X021736Y007429D01*
X021523Y007341D01*
X021361Y007178D01*
X021273Y006966D01*
X021273Y006736D01*
X021361Y006523D01*
X021371Y006513D01*
X021371Y004938D01*
X021361Y004928D01*
X021273Y004716D01*
X021273Y004486D01*
X021361Y004273D01*
X021523Y004111D01*
X021736Y004023D01*
X021966Y004023D01*
X021635Y004064D02*
X020566Y004064D01*
X020466Y004023D02*
X020678Y004111D01*
X020841Y004273D01*
X020929Y004486D01*
X020929Y004716D01*
X020841Y004928D01*
X020831Y004938D01*
X020831Y006513D01*
X020841Y006523D01*
X020929Y006736D01*
X020929Y006966D01*
X020841Y007178D01*
X020678Y007341D01*
X020466Y007429D01*
X020236Y007429D01*
X020023Y007341D01*
X019861Y007178D01*
X019773Y006966D01*
X019773Y006736D01*
X019861Y006523D01*
X019871Y006513D01*
X019871Y004938D01*
X019861Y004928D01*
X019773Y004716D01*
X019773Y004486D01*
X019861Y004273D01*
X020023Y004111D01*
X020236Y004023D01*
X020466Y004023D01*
X020135Y004064D02*
X018816Y004064D01*
X019040Y004223D02*
X019911Y004223D01*
X019816Y004381D02*
X019136Y004381D01*
X019179Y004540D02*
X019773Y004540D01*
X019773Y004699D02*
X019179Y004699D01*
X019120Y004857D02*
X019831Y004857D01*
X019871Y005016D02*
X019081Y005016D01*
X019081Y005174D02*
X019871Y005174D01*
X019871Y005333D02*
X019081Y005333D01*
X019081Y005491D02*
X019871Y005491D01*
X019871Y005650D02*
X019081Y005650D01*
X019081Y005808D02*
X019871Y005808D01*
X019871Y005967D02*
X019081Y005967D01*
X019081Y006125D02*
X019871Y006125D01*
X019871Y006284D02*
X019081Y006284D01*
X019081Y006443D02*
X019871Y006443D01*
X019828Y006601D02*
X019123Y006601D01*
X019179Y006760D02*
X019773Y006760D01*
X019773Y006918D02*
X019179Y006918D01*
X019133Y007077D02*
X019819Y007077D01*
X019918Y007235D02*
X019034Y007235D01*
X018801Y007394D02*
X020151Y007394D01*
X020551Y007394D02*
X021651Y007394D01*
X021418Y007235D02*
X020784Y007235D01*
X020883Y007077D02*
X021319Y007077D01*
X021273Y006918D02*
X020929Y006918D01*
X020929Y006760D02*
X021273Y006760D01*
X021328Y006601D02*
X020873Y006601D01*
X020831Y006443D02*
X021371Y006443D01*
X021371Y006284D02*
X020831Y006284D01*
X020831Y006125D02*
X021371Y006125D01*
X021371Y005967D02*
X020831Y005967D01*
X020831Y005808D02*
X021371Y005808D01*
X021371Y005650D02*
X020831Y005650D01*
X020831Y005491D02*
X021371Y005491D01*
X021371Y005333D02*
X020831Y005333D01*
X020831Y005174D02*
X021371Y005174D01*
X021371Y005016D02*
X020831Y005016D01*
X020870Y004857D02*
X021331Y004857D01*
X021273Y004699D02*
X020929Y004699D01*
X020929Y004540D02*
X021273Y004540D01*
X021316Y004381D02*
X020886Y004381D01*
X020790Y004223D02*
X021411Y004223D01*
X021851Y004601D02*
X021851Y006851D01*
X022383Y007077D02*
X023069Y007077D01*
X023023Y006918D02*
X022429Y006918D01*
X022429Y006760D02*
X023023Y006760D01*
X023078Y006601D02*
X022373Y006601D01*
X022331Y006443D02*
X023121Y006443D01*
X023121Y006284D02*
X022331Y006284D01*
X022331Y006125D02*
X023121Y006125D01*
X023121Y005967D02*
X022331Y005967D01*
X022331Y005808D02*
X023121Y005808D01*
X023121Y005650D02*
X022331Y005650D01*
X022331Y005491D02*
X023121Y005491D01*
X023121Y005333D02*
X022331Y005333D01*
X022331Y005174D02*
X023121Y005174D01*
X023121Y005016D02*
X022331Y005016D01*
X022370Y004857D02*
X023081Y004857D01*
X023023Y004699D02*
X022429Y004699D01*
X022429Y004540D02*
X023023Y004540D01*
X023066Y004381D02*
X022386Y004381D01*
X022290Y004223D02*
X023161Y004223D01*
X023601Y004601D02*
X023601Y006851D01*
X024081Y006443D02*
X024601Y006443D01*
X024601Y006601D02*
X024123Y006601D01*
X024179Y006760D02*
X024601Y006760D01*
X024601Y006918D02*
X024179Y006918D01*
X024133Y007077D02*
X024601Y007077D01*
X024601Y007235D02*
X024034Y007235D01*
X023801Y007394D02*
X024601Y007394D01*
X024601Y007552D02*
X018331Y007552D01*
X018331Y007394D02*
X018401Y007394D01*
X018331Y007711D02*
X024601Y007711D01*
X024601Y007869D02*
X018331Y007869D01*
X018331Y008028D02*
X022688Y008028D01*
X022530Y008186D02*
X018331Y008186D01*
X018331Y008345D02*
X022404Y008345D01*
X022404Y008504D02*
X018331Y008504D01*
X018331Y008662D02*
X022404Y008662D01*
X022404Y008821D02*
X018331Y008821D01*
X018331Y008979D02*
X022494Y008979D01*
X022578Y009138D02*
X018331Y009138D01*
X018289Y009296D02*
X022420Y009296D01*
X022404Y009455D02*
X018176Y009455D01*
X018017Y009613D02*
X022404Y009613D01*
X022404Y009772D02*
X017858Y009772D01*
X017700Y009930D02*
X022445Y009930D01*
X022604Y010089D02*
X017581Y010089D01*
X017580Y010248D02*
X022469Y010248D01*
X022404Y010406D02*
X017514Y010406D01*
X017419Y010565D02*
X022404Y010565D01*
X022404Y010723D02*
X017256Y010723D01*
X016851Y010101D02*
X017851Y009101D01*
X017851Y001628D01*
X017918Y001561D01*
X017388Y001052D02*
X017069Y001052D01*
X017190Y001211D02*
X017268Y001211D01*
X017610Y000894D02*
X016847Y000894D01*
X016232Y000894D02*
X015469Y000894D01*
X015691Y001052D02*
X016010Y001052D01*
X015890Y001211D02*
X015812Y001211D01*
X015162Y001561D02*
X014851Y001872D01*
X014851Y009101D01*
X013851Y010101D01*
X014581Y010089D02*
X015371Y010089D01*
X015371Y010248D02*
X014580Y010248D01*
X014514Y010406D02*
X015371Y010406D01*
X015371Y010565D02*
X014419Y010565D01*
X014256Y010723D02*
X015371Y010723D01*
X015371Y010882D02*
X013331Y010882D01*
X013331Y011040D02*
X015371Y011040D01*
X015371Y011199D02*
X013331Y011199D01*
X013331Y011357D02*
X015371Y011357D01*
X015371Y011516D02*
X014298Y011516D01*
X014457Y011674D02*
X015371Y011674D01*
X015427Y011833D02*
X014530Y011833D01*
X014581Y011992D02*
X015563Y011992D01*
X015721Y012150D02*
X014581Y012150D01*
X014555Y012309D02*
X015880Y012309D01*
X016038Y012467D02*
X014489Y012467D01*
X014358Y012626D02*
X016343Y012626D01*
X016593Y012784D02*
X014108Y012784D01*
X013593Y012784D02*
X011108Y012784D01*
X011358Y012626D02*
X013343Y012626D01*
X013038Y012467D02*
X011489Y012467D01*
X011555Y012309D02*
X012880Y012309D01*
X012721Y012150D02*
X011581Y012150D01*
X011581Y011992D02*
X012563Y011992D01*
X012427Y011833D02*
X011530Y011833D01*
X011457Y011674D02*
X012371Y011674D01*
X012371Y011516D02*
X011298Y011516D01*
X010851Y012101D02*
X010351Y012101D01*
X009851Y011601D01*
X009851Y002601D01*
X010601Y001872D01*
X010540Y001561D01*
X011069Y001052D02*
X011388Y001052D01*
X011268Y001211D02*
X011190Y001211D01*
X010847Y000894D02*
X011610Y000894D01*
X012225Y000894D02*
X013477Y000894D01*
X013254Y001052D02*
X012447Y001052D01*
X012568Y001211D02*
X013134Y001211D01*
X013068Y001369D02*
X012633Y001369D01*
X012652Y001528D02*
X013049Y001528D01*
X013049Y001686D02*
X012652Y001686D01*
X012596Y001845D02*
X013106Y001845D01*
X013187Y002003D02*
X012515Y002003D01*
X012356Y002162D02*
X013345Y002162D01*
X013371Y002320D02*
X012331Y002320D01*
X012331Y002479D02*
X013371Y002479D01*
X013371Y002637D02*
X012331Y002637D01*
X012331Y002796D02*
X013371Y002796D01*
X013371Y002955D02*
X012331Y002955D01*
X012331Y003113D02*
X013371Y003113D01*
X013371Y003272D02*
X012331Y003272D01*
X012331Y003430D02*
X013371Y003430D01*
X013371Y003589D02*
X012331Y003589D01*
X012331Y003747D02*
X013371Y003747D01*
X013371Y003906D02*
X012331Y003906D01*
X012331Y004064D02*
X013371Y004064D01*
X013371Y004223D02*
X012331Y004223D01*
X012331Y004381D02*
X013371Y004381D01*
X013371Y004540D02*
X012331Y004540D01*
X012331Y004699D02*
X013371Y004699D01*
X013371Y004857D02*
X012331Y004857D01*
X012331Y005016D02*
X013371Y005016D01*
X013371Y005174D02*
X012331Y005174D01*
X012331Y005333D02*
X013371Y005333D01*
X013371Y005491D02*
X012331Y005491D01*
X012331Y005650D02*
X013371Y005650D01*
X013371Y005808D02*
X012331Y005808D01*
X012331Y005967D02*
X013371Y005967D01*
X013371Y006125D02*
X012331Y006125D01*
X012331Y006284D02*
X013371Y006284D01*
X013371Y006443D02*
X012331Y006443D01*
X012331Y006601D02*
X013371Y006601D01*
X013371Y006760D02*
X012331Y006760D01*
X012331Y006918D02*
X013371Y006918D01*
X013371Y007077D02*
X012331Y007077D01*
X012331Y007235D02*
X013371Y007235D01*
X013371Y007394D02*
X012331Y007394D01*
X012331Y007552D02*
X013371Y007552D01*
X013371Y007711D02*
X012331Y007711D01*
X012331Y007869D02*
X013371Y007869D01*
X013371Y008028D02*
X012331Y008028D01*
X012331Y008186D02*
X013371Y008186D01*
X013371Y008345D02*
X012331Y008345D01*
X012331Y008504D02*
X013269Y008504D01*
X013111Y008662D02*
X012331Y008662D01*
X012331Y008821D02*
X012952Y008821D01*
X012794Y008979D02*
X012331Y008979D01*
X012331Y009138D02*
X012635Y009138D01*
X012476Y009296D02*
X012289Y009296D01*
X012392Y009455D02*
X012176Y009455D01*
X012017Y009613D02*
X012371Y009613D01*
X012371Y009772D02*
X011858Y009772D01*
X011700Y009930D02*
X012371Y009930D01*
X012371Y010089D02*
X011581Y010089D01*
X011580Y010248D02*
X012371Y010248D01*
X012371Y010406D02*
X011514Y010406D01*
X011419Y010565D02*
X012371Y010565D01*
X012371Y010723D02*
X011256Y010723D01*
X010851Y010101D02*
X011851Y009101D01*
X011851Y001628D01*
X011918Y001561D01*
X010232Y000894D02*
X009469Y000894D01*
X009691Y001052D02*
X010010Y001052D01*
X009890Y001211D02*
X009812Y001211D01*
X009840Y001845D02*
X009862Y001845D01*
X009777Y002003D02*
X009759Y002003D01*
X009614Y002162D02*
X009600Y002162D01*
X009450Y002320D02*
X009331Y002320D01*
X009331Y002479D02*
X009381Y002479D01*
X009370Y002637D02*
X009331Y002637D01*
X009331Y002796D02*
X009371Y002796D01*
X009371Y002955D02*
X009331Y002955D01*
X009331Y003113D02*
X009371Y003113D01*
X009371Y003272D02*
X009331Y003272D01*
X009331Y003430D02*
X009371Y003430D01*
X009371Y003589D02*
X009331Y003589D01*
X009331Y003747D02*
X009371Y003747D01*
X009371Y003906D02*
X009331Y003906D01*
X009331Y004064D02*
X009371Y004064D01*
X009371Y004223D02*
X009331Y004223D01*
X009331Y004381D02*
X009371Y004381D01*
X009371Y004540D02*
X009331Y004540D01*
X009331Y004699D02*
X009371Y004699D01*
X009371Y004857D02*
X009331Y004857D01*
X009331Y005016D02*
X009371Y005016D01*
X009371Y005174D02*
X009331Y005174D01*
X009331Y005333D02*
X009371Y005333D01*
X009371Y005491D02*
X009331Y005491D01*
X009331Y005650D02*
X009371Y005650D01*
X009371Y005808D02*
X009331Y005808D01*
X009331Y005967D02*
X009371Y005967D01*
X009371Y006125D02*
X009331Y006125D01*
X009331Y006284D02*
X009371Y006284D01*
X009371Y006443D02*
X009331Y006443D01*
X009331Y006601D02*
X009371Y006601D01*
X009371Y006760D02*
X009331Y006760D01*
X009331Y006918D02*
X009371Y006918D01*
X009371Y007077D02*
X009331Y007077D01*
X009331Y007235D02*
X009371Y007235D01*
X009371Y007394D02*
X009331Y007394D01*
X009331Y007552D02*
X009371Y007552D01*
X009371Y007711D02*
X009331Y007711D01*
X009331Y007869D02*
X009371Y007869D01*
X009371Y008028D02*
X009331Y008028D01*
X009331Y008186D02*
X009371Y008186D01*
X009371Y008345D02*
X009331Y008345D01*
X009331Y008504D02*
X009371Y008504D01*
X009371Y008662D02*
X009331Y008662D01*
X009331Y008821D02*
X009371Y008821D01*
X009371Y008979D02*
X009331Y008979D01*
X009331Y009138D02*
X009371Y009138D01*
X009371Y009296D02*
X009289Y009296D01*
X009371Y009455D02*
X009176Y009455D01*
X009017Y009613D02*
X009371Y009613D01*
X009371Y009772D02*
X008858Y009772D01*
X008700Y009930D02*
X009371Y009930D01*
X009371Y010089D02*
X008581Y010089D01*
X008580Y010248D02*
X009371Y010248D01*
X009371Y010406D02*
X008514Y010406D01*
X008419Y010565D02*
X009371Y010565D01*
X009371Y010723D02*
X008256Y010723D01*
X007851Y010101D02*
X008851Y009101D01*
X008851Y001872D01*
X009162Y001561D01*
X008632Y001052D02*
X008313Y001052D01*
X008434Y001211D02*
X008512Y001211D01*
X008855Y000894D02*
X008091Y000894D01*
X007784Y001561D02*
X007851Y001628D01*
X007851Y008601D01*
X006851Y009601D01*
X006851Y011601D01*
X007351Y012101D01*
X007851Y012101D01*
X008358Y012626D02*
X010343Y012626D01*
X010593Y012784D02*
X008108Y012784D01*
X008489Y012467D02*
X010038Y012467D01*
X009880Y012309D02*
X008555Y012309D01*
X008581Y012150D02*
X009721Y012150D01*
X009563Y011992D02*
X008581Y011992D01*
X008530Y011833D02*
X009427Y011833D01*
X009371Y011674D02*
X008457Y011674D01*
X008298Y011516D02*
X009371Y011516D01*
X009371Y011357D02*
X007331Y011357D01*
X007331Y011199D02*
X009371Y011199D01*
X009371Y011040D02*
X007331Y011040D01*
X007331Y010882D02*
X009371Y010882D01*
X010331Y010882D02*
X012371Y010882D01*
X012371Y011040D02*
X010331Y011040D01*
X010331Y011199D02*
X012371Y011199D01*
X012371Y011357D02*
X010331Y011357D01*
X010331Y010723D02*
X010446Y010723D01*
X011101Y009101D02*
X011101Y006851D01*
X013851Y008601D02*
X012851Y009601D01*
X012851Y011601D01*
X013351Y012101D01*
X013851Y012101D01*
X013446Y010723D02*
X013331Y010723D01*
X014700Y009930D02*
X015371Y009930D01*
X015371Y009772D02*
X014858Y009772D01*
X015017Y009613D02*
X015371Y009613D01*
X015392Y009455D02*
X015176Y009455D01*
X015289Y009296D02*
X015476Y009296D01*
X015331Y009138D02*
X015635Y009138D01*
X015412Y008979D02*
X015331Y008979D01*
X015851Y008601D02*
X015851Y007101D01*
X016851Y008601D02*
X016851Y001872D01*
X016540Y001561D01*
X014855Y000894D02*
X014091Y000894D01*
X014313Y001052D02*
X014632Y001052D01*
X014512Y001211D02*
X014434Y001211D01*
X013851Y001628D02*
X013784Y001561D01*
X013851Y001628D02*
X013851Y008601D01*
X015851Y009601D02*
X016851Y008601D01*
X015851Y009601D02*
X015851Y011601D01*
X016351Y012101D01*
X016851Y012101D01*
X017358Y012626D02*
X022404Y012626D01*
X022404Y012784D02*
X017108Y012784D01*
X017489Y012467D02*
X022404Y012467D01*
X022407Y012309D02*
X017555Y012309D01*
X017581Y012150D02*
X022566Y012150D01*
X022506Y011992D02*
X017581Y011992D01*
X017530Y011833D02*
X022404Y011833D01*
X022404Y011674D02*
X017457Y011674D01*
X017298Y011516D02*
X022404Y011516D01*
X022404Y011357D02*
X016331Y011357D01*
X016331Y011199D02*
X022517Y011199D01*
X022555Y011040D02*
X016331Y011040D01*
X016331Y010882D02*
X022404Y010882D01*
X022457Y012943D02*
X006831Y012943D01*
X006831Y013101D02*
X022615Y013101D01*
X022456Y013260D02*
X006831Y013260D01*
X006831Y013418D02*
X022404Y013418D01*
X022404Y013577D02*
X006831Y013577D01*
X006831Y013736D02*
X022404Y013736D01*
X022409Y013894D02*
X006831Y013894D01*
X006831Y014053D02*
X022567Y014053D01*
X022505Y014211D02*
X006831Y014211D01*
X006831Y014370D02*
X022404Y014370D01*
X022404Y014528D02*
X006831Y014528D01*
X006831Y014687D02*
X022404Y014687D01*
X022404Y014845D02*
X006831Y014845D01*
X006831Y015004D02*
X022518Y015004D01*
X022554Y015162D02*
X006831Y015162D01*
X006831Y015321D02*
X022404Y015321D01*
X022404Y015479D02*
X018258Y015479D01*
X018264Y015482D02*
X018470Y015687D01*
X018581Y015956D01*
X018581Y016246D01*
X018470Y016514D01*
X018383Y016601D01*
X018470Y016687D01*
X018581Y016956D01*
X018581Y017246D01*
X018470Y017514D01*
X018264Y017720D01*
X017996Y017831D01*
X017706Y017831D01*
X017437Y017720D01*
X017232Y017514D01*
X017121Y017246D01*
X017121Y016956D01*
X017232Y016687D01*
X017318Y016601D01*
X017232Y016514D01*
X017121Y016246D01*
X017121Y015956D01*
X017232Y015687D01*
X017437Y015482D01*
X017706Y015371D01*
X017996Y015371D01*
X018264Y015482D01*
X018420Y015638D02*
X022404Y015638D01*
X022404Y015797D02*
X018515Y015797D01*
X018581Y015955D02*
X022470Y015955D01*
X022602Y016114D02*
X018581Y016114D01*
X018570Y016272D02*
X022444Y016272D01*
X022404Y016431D02*
X018504Y016431D01*
X018395Y016589D02*
X022404Y016589D01*
X022404Y016748D02*
X018495Y016748D01*
X018560Y016906D02*
X022421Y016906D01*
X022579Y017065D02*
X018581Y017065D01*
X018581Y017223D02*
X022493Y017223D01*
X022404Y017382D02*
X018524Y017382D01*
X018443Y017541D02*
X022404Y017541D01*
X022404Y017699D02*
X018285Y017699D01*
X017417Y017699D02*
X015285Y017699D01*
X015264Y017720D02*
X014996Y017831D01*
X014706Y017831D01*
X014437Y017720D01*
X014232Y017514D01*
X014121Y017246D01*
X014121Y016956D01*
X014232Y016687D01*
X014318Y016601D01*
X014232Y016514D01*
X014121Y016246D01*
X014121Y015956D01*
X014232Y015687D01*
X014437Y015482D01*
X014706Y015371D01*
X014996Y015371D01*
X015264Y015482D01*
X015470Y015687D01*
X015581Y015956D01*
X015581Y016246D01*
X015470Y016514D01*
X015383Y016601D01*
X015470Y016687D01*
X015581Y016956D01*
X015581Y017246D01*
X015470Y017514D01*
X015264Y017720D01*
X015443Y017541D02*
X017258Y017541D01*
X017177Y017382D02*
X015524Y017382D01*
X015581Y017223D02*
X017121Y017223D01*
X017121Y017065D02*
X015581Y017065D01*
X015560Y016906D02*
X017141Y016906D01*
X017207Y016748D02*
X015495Y016748D01*
X015395Y016589D02*
X017307Y016589D01*
X017197Y016431D02*
X015504Y016431D01*
X015570Y016272D02*
X017132Y016272D01*
X017121Y016114D02*
X015581Y016114D01*
X015581Y015955D02*
X017121Y015955D01*
X017187Y015797D02*
X015515Y015797D01*
X015420Y015638D02*
X017281Y015638D01*
X017443Y015479D02*
X015258Y015479D01*
X014443Y015479D02*
X012258Y015479D01*
X012264Y015482D02*
X012470Y015687D01*
X012581Y015956D01*
X012581Y016246D01*
X012470Y016514D01*
X012383Y016601D01*
X012470Y016687D01*
X012581Y016956D01*
X012581Y017246D01*
X012470Y017514D01*
X012264Y017720D01*
X011996Y017831D01*
X011706Y017831D01*
X011437Y017720D01*
X011232Y017514D01*
X011121Y017246D01*
X011121Y016956D01*
X011232Y016687D01*
X011318Y016601D01*
X011232Y016514D01*
X011121Y016246D01*
X011121Y015956D01*
X011232Y015687D01*
X011437Y015482D01*
X011706Y015371D01*
X011996Y015371D01*
X012264Y015482D01*
X012420Y015638D02*
X014281Y015638D01*
X014187Y015797D02*
X012515Y015797D01*
X012581Y015955D02*
X014121Y015955D01*
X014121Y016114D02*
X012581Y016114D01*
X012570Y016272D02*
X014132Y016272D01*
X014197Y016431D02*
X012504Y016431D01*
X012395Y016589D02*
X014307Y016589D01*
X014207Y016748D02*
X012495Y016748D01*
X012560Y016906D02*
X014141Y016906D01*
X014121Y017065D02*
X012581Y017065D01*
X012581Y017223D02*
X014121Y017223D01*
X014177Y017382D02*
X012524Y017382D01*
X012443Y017541D02*
X014258Y017541D01*
X014417Y017699D02*
X012285Y017699D01*
X011417Y017699D02*
X010429Y017699D01*
X010429Y017716D02*
X010341Y017928D01*
X010331Y017938D01*
X010331Y023013D01*
X010341Y023023D01*
X010429Y023236D01*
X010429Y023466D01*
X010341Y023678D01*
X010178Y023841D01*
X009966Y023929D01*
X009736Y023929D01*
X009523Y023841D01*
X009361Y023678D01*
X009273Y023466D01*
X009273Y023236D01*
X009361Y023023D01*
X009371Y023013D01*
X009371Y017938D01*
X009361Y017928D01*
X009273Y017716D01*
X009273Y017711D01*
X009264Y017720D01*
X008996Y017831D01*
X008706Y017831D01*
X008437Y017720D01*
X008232Y017514D01*
X008121Y017246D01*
X008121Y016956D01*
X008232Y016687D01*
X008318Y016601D01*
X008232Y016514D01*
X008121Y016246D01*
X008121Y015956D01*
X008232Y015687D01*
X008437Y015482D01*
X008706Y015371D01*
X008996Y015371D01*
X009264Y015482D01*
X009470Y015687D01*
X009581Y015956D01*
X009581Y016246D01*
X009470Y016514D01*
X009383Y016601D01*
X009470Y016687D01*
X009581Y016956D01*
X009581Y017087D01*
X009736Y017023D01*
X009966Y017023D01*
X010178Y017111D01*
X010341Y017273D01*
X010429Y017486D01*
X010429Y017716D01*
X010370Y017858D02*
X022404Y017858D01*
X022531Y018016D02*
X010331Y018016D01*
X010331Y018175D02*
X022541Y018175D01*
X022404Y018333D02*
X010331Y018333D01*
X010331Y018492D02*
X022404Y018492D01*
X022404Y018650D02*
X010331Y018650D01*
X010331Y018809D02*
X022404Y018809D01*
X022482Y018967D02*
X010331Y018967D01*
X010331Y019126D02*
X022590Y019126D01*
X022432Y019285D02*
X010331Y019285D01*
X010331Y019443D02*
X022404Y019443D01*
X022404Y019602D02*
X010331Y019602D01*
X010331Y019760D02*
X022404Y019760D01*
X022433Y019919D02*
X010331Y019919D01*
X010331Y020077D02*
X022592Y020077D01*
X022750Y020236D02*
X010331Y020236D01*
X010331Y020394D02*
X022633Y020394D01*
X022624Y020553D02*
X010331Y020553D01*
X010331Y020711D02*
X022624Y020711D01*
X022696Y020870D02*
X010331Y020870D01*
X010331Y021029D02*
X022688Y021029D01*
X022529Y021187D02*
X010331Y021187D01*
X010331Y021346D02*
X022404Y021346D01*
X022404Y021504D02*
X010331Y021504D01*
X010331Y021663D02*
X022404Y021663D01*
X022404Y021821D02*
X010331Y021821D01*
X010331Y021980D02*
X022494Y021980D01*
X022653Y022138D02*
X010331Y022138D01*
X010331Y022297D02*
X022811Y022297D01*
X023390Y022297D02*
X023811Y022297D01*
X023653Y022138D02*
X023549Y022138D01*
X023389Y022906D02*
X022813Y022906D01*
X022406Y023313D01*
X022406Y023889D01*
X022813Y024296D01*
X023389Y024296D01*
X023796Y023889D01*
X023796Y023313D01*
X023389Y022906D01*
X023414Y022931D02*
X024601Y022931D01*
X024601Y022772D02*
X010331Y022772D01*
X010331Y022614D02*
X024601Y022614D01*
X024601Y022455D02*
X010331Y022455D01*
X010331Y022931D02*
X022787Y022931D01*
X022629Y023090D02*
X010368Y023090D01*
X010429Y023248D02*
X022470Y023248D01*
X022406Y023407D02*
X010429Y023407D01*
X010388Y023565D02*
X022406Y023565D01*
X022406Y023724D02*
X010295Y023724D01*
X010078Y023882D02*
X022406Y023882D01*
X022558Y024041D02*
X003669Y024041D01*
X003519Y024199D02*
X022716Y024199D01*
X023485Y024199D02*
X024601Y024199D01*
X024601Y024041D02*
X023644Y024041D01*
X023796Y023882D02*
X024601Y023882D01*
X024601Y023724D02*
X023796Y023724D01*
X023796Y023565D02*
X024601Y023565D01*
X024601Y023407D02*
X023796Y023407D01*
X023731Y023248D02*
X024601Y023248D01*
X024601Y023090D02*
X023573Y023090D01*
X024390Y022297D02*
X024601Y022297D01*
X024601Y022138D02*
X024549Y022138D01*
X016446Y010723D02*
X016331Y010723D01*
X018601Y006851D02*
X018601Y004601D01*
X018385Y004064D02*
X018331Y004064D01*
X020351Y004601D02*
X020351Y006851D01*
X022051Y007394D02*
X023401Y007394D01*
X023168Y007235D02*
X022284Y007235D01*
X023513Y008028D02*
X023688Y008028D01*
X024513Y008028D02*
X024601Y008028D01*
X024601Y006284D02*
X024081Y006284D01*
X024081Y006125D02*
X024601Y006125D01*
X024601Y005967D02*
X024081Y005967D01*
X024081Y005808D02*
X024601Y005808D01*
X024601Y005650D02*
X024081Y005650D01*
X024081Y005491D02*
X024601Y005491D01*
X024601Y005333D02*
X024081Y005333D01*
X024081Y005174D02*
X024601Y005174D01*
X024601Y005016D02*
X024081Y005016D01*
X024120Y004857D02*
X024601Y004857D01*
X024601Y004699D02*
X024179Y004699D01*
X024179Y004540D02*
X024601Y004540D01*
X024601Y004381D02*
X024136Y004381D01*
X024040Y004223D02*
X024601Y004223D01*
X011443Y015479D02*
X009258Y015479D01*
X009420Y015638D02*
X011281Y015638D01*
X011187Y015797D02*
X009515Y015797D01*
X009581Y015955D02*
X011121Y015955D01*
X011121Y016114D02*
X009581Y016114D01*
X009570Y016272D02*
X011132Y016272D01*
X011197Y016431D02*
X009504Y016431D01*
X009395Y016589D02*
X011307Y016589D01*
X011207Y016748D02*
X009495Y016748D01*
X009560Y016906D02*
X011141Y016906D01*
X011121Y017065D02*
X010068Y017065D01*
X010291Y017223D02*
X011121Y017223D01*
X011177Y017382D02*
X010386Y017382D01*
X010429Y017541D02*
X011258Y017541D01*
X009851Y017601D02*
X009851Y023351D01*
X009314Y023565D02*
X006888Y023565D01*
X006929Y023407D02*
X009273Y023407D01*
X009273Y023248D02*
X006929Y023248D01*
X006868Y023090D02*
X009333Y023090D01*
X009371Y022931D02*
X006831Y022931D01*
X006831Y022772D02*
X009371Y022772D01*
X009371Y022614D02*
X006831Y022614D01*
X006831Y022455D02*
X009371Y022455D01*
X009371Y022297D02*
X006831Y022297D01*
X006831Y022138D02*
X009371Y022138D01*
X009371Y021980D02*
X006831Y021980D01*
X006831Y021821D02*
X009371Y021821D01*
X009371Y021663D02*
X007505Y021663D01*
X007765Y021504D02*
X009371Y021504D01*
X009371Y021346D02*
X007875Y021346D01*
X007929Y021187D02*
X009371Y021187D01*
X009371Y021029D02*
X007929Y021029D01*
X007881Y020870D02*
X009371Y020870D01*
X009371Y020711D02*
X007831Y020711D01*
X007831Y020553D02*
X009371Y020553D01*
X009371Y020394D02*
X007831Y020394D01*
X007831Y020236D02*
X009371Y020236D01*
X009371Y020077D02*
X007831Y020077D01*
X007831Y019919D02*
X009371Y019919D01*
X009371Y019760D02*
X007831Y019760D01*
X007831Y019602D02*
X009371Y019602D01*
X009371Y019443D02*
X007831Y019443D01*
X007831Y019285D02*
X009371Y019285D01*
X009371Y019126D02*
X007831Y019126D01*
X007831Y018967D02*
X009371Y018967D01*
X009371Y018809D02*
X007831Y018809D01*
X007831Y018650D02*
X009371Y018650D01*
X009371Y018492D02*
X007831Y018492D01*
X007831Y018333D02*
X009371Y018333D01*
X009371Y018175D02*
X007831Y018175D01*
X007831Y018016D02*
X009371Y018016D01*
X009331Y017858D02*
X007831Y017858D01*
X007831Y017699D02*
X008417Y017699D01*
X008258Y017541D02*
X007831Y017541D01*
X007860Y017382D02*
X008177Y017382D01*
X008121Y017223D02*
X007926Y017223D01*
X007929Y017065D02*
X008121Y017065D01*
X008141Y016906D02*
X007896Y016906D01*
X007815Y016748D02*
X008207Y016748D01*
X008307Y016589D02*
X007627Y016589D01*
X007075Y016589D02*
X006831Y016589D01*
X006831Y016431D02*
X008197Y016431D01*
X008132Y016272D02*
X006831Y016272D01*
X006831Y016114D02*
X008121Y016114D01*
X008121Y015955D02*
X006831Y015955D01*
X006831Y015797D02*
X008187Y015797D01*
X008281Y015638D02*
X006831Y015638D01*
X006831Y015479D02*
X008443Y015479D01*
X006886Y016748D02*
X006831Y016748D01*
X007351Y017101D02*
X007351Y021101D01*
X006937Y021504D02*
X006831Y021504D01*
X006831Y021663D02*
X007197Y021663D01*
X006351Y023351D02*
X006351Y010101D01*
X005773Y010089D02*
X004041Y010089D01*
X003916Y010248D02*
X005786Y010248D01*
X005852Y010406D02*
X003850Y010406D01*
X003704Y010565D02*
X005871Y010565D01*
X005871Y010723D02*
X003407Y010723D01*
X003331Y010882D02*
X005871Y010882D01*
X005871Y011040D02*
X003331Y011040D01*
X003331Y011199D02*
X005871Y011199D01*
X005871Y011357D02*
X003331Y011357D01*
X003331Y011516D02*
X005871Y011516D01*
X005871Y011674D02*
X003331Y011674D01*
X003331Y011833D02*
X005871Y011833D01*
X006831Y012309D02*
X006880Y012309D01*
X006831Y012467D02*
X007038Y012467D01*
X006831Y012626D02*
X007343Y012626D01*
X007593Y012784D02*
X006831Y012784D01*
X007331Y010723D02*
X007446Y010723D01*
X006387Y009455D02*
X004676Y009455D01*
X004789Y009296D02*
X006306Y009296D01*
X006273Y009138D02*
X004831Y009138D01*
X004831Y008979D02*
X006275Y008979D01*
X006341Y008821D02*
X004831Y008821D01*
X004831Y008662D02*
X006371Y008662D01*
X006371Y008504D02*
X004831Y008504D01*
X004831Y008345D02*
X006371Y008345D01*
X006371Y008186D02*
X004831Y008186D01*
X004831Y008028D02*
X006371Y008028D01*
X006371Y007869D02*
X004831Y007869D01*
X004831Y007711D02*
X006371Y007711D01*
X006371Y007552D02*
X004831Y007552D01*
X004831Y007394D02*
X006346Y007394D01*
X006281Y007235D02*
X004831Y007235D01*
X004831Y007077D02*
X006273Y007077D01*
X006301Y006918D02*
X004831Y006918D01*
X004831Y006760D02*
X006374Y006760D01*
X006546Y006601D02*
X004831Y006601D01*
X004831Y006443D02*
X007371Y006443D01*
X007371Y006601D02*
X007155Y006601D01*
X007327Y006760D02*
X007371Y006760D01*
X007371Y006284D02*
X004901Y006284D01*
X004929Y006125D02*
X007371Y006125D01*
X007371Y005967D02*
X004921Y005967D01*
X004855Y005808D02*
X007371Y005808D01*
X007371Y005650D02*
X004717Y005650D01*
X004351Y006101D02*
X004351Y009101D01*
X003351Y010101D01*
X002851Y010601D01*
X002851Y021851D01*
X004351Y023351D02*
X004351Y017101D01*
X005351Y018101D02*
X005351Y009101D01*
X006021Y009613D02*
X004517Y009613D01*
X004358Y009772D02*
X005862Y009772D01*
X005796Y009930D02*
X004200Y009930D01*
X004351Y012601D02*
X003851Y013101D01*
X003851Y019601D01*
X006795Y023724D02*
X009406Y023724D01*
X009623Y023882D02*
X006578Y023882D01*
X009581Y017065D02*
X009634Y017065D01*
X006851Y009101D02*
X006851Y007101D01*
D17*
X023101Y023601D03*
M02*
