G75*
G70*
%OFA0B0*%
%FSLAX24Y24*%
%IPPOS*%
%LPD*%
%AMOC8*
5,1,8,0,0,1.08239X$1,22.5*
%
%ADD10C,0.0000*%
%ADD11C,0.0827*%
%ADD12OC8,0.0634*%
%ADD13C,0.0709*%
%ADD14C,0.0700*%
D10*
X000101Y000101D02*
X000101Y025298D01*
X025298Y025298D01*
X025298Y000101D01*
X000101Y000101D01*
X001707Y013101D02*
X001709Y013140D01*
X001715Y013179D01*
X001725Y013217D01*
X001738Y013254D01*
X001755Y013289D01*
X001775Y013323D01*
X001799Y013354D01*
X001826Y013383D01*
X001855Y013409D01*
X001887Y013432D01*
X001921Y013452D01*
X001957Y013468D01*
X001994Y013480D01*
X002033Y013489D01*
X002072Y013494D01*
X002111Y013495D01*
X002150Y013492D01*
X002189Y013485D01*
X002226Y013474D01*
X002263Y013460D01*
X002298Y013442D01*
X002331Y013421D01*
X002362Y013396D01*
X002390Y013369D01*
X002415Y013339D01*
X002437Y013306D01*
X002456Y013272D01*
X002471Y013236D01*
X002483Y013198D01*
X002491Y013160D01*
X002495Y013121D01*
X002495Y013081D01*
X002491Y013042D01*
X002483Y013004D01*
X002471Y012966D01*
X002456Y012930D01*
X002437Y012896D01*
X002415Y012863D01*
X002390Y012833D01*
X002362Y012806D01*
X002331Y012781D01*
X002298Y012760D01*
X002263Y012742D01*
X002226Y012728D01*
X002189Y012717D01*
X002150Y012710D01*
X002111Y012707D01*
X002072Y012708D01*
X002033Y012713D01*
X001994Y012722D01*
X001957Y012734D01*
X001921Y012750D01*
X001887Y012770D01*
X001855Y012793D01*
X001826Y012819D01*
X001799Y012848D01*
X001775Y012879D01*
X001755Y012913D01*
X001738Y012948D01*
X001725Y012985D01*
X001715Y013023D01*
X001709Y013062D01*
X001707Y013101D01*
D11*
X002101Y013101D03*
D12*
X023101Y012601D03*
X023101Y013601D03*
X023101Y014601D03*
X023101Y015601D03*
X023101Y016601D03*
X023101Y017601D03*
X023101Y018601D03*
X023101Y019601D03*
X023101Y020601D03*
X023101Y021601D03*
X024101Y021601D03*
X024101Y020601D03*
X024101Y019601D03*
X024101Y018601D03*
X024101Y017601D03*
X024101Y016601D03*
X024101Y015601D03*
X024101Y014601D03*
X024101Y013601D03*
X024101Y012601D03*
X024101Y011601D03*
X024101Y010601D03*
X024101Y009601D03*
X024101Y008601D03*
X023101Y008601D03*
X023101Y009601D03*
X023101Y010601D03*
X023101Y011601D03*
D13*
X022540Y001561D03*
X021162Y001561D03*
X019784Y001561D03*
X017918Y001561D03*
X016540Y001561D03*
X015162Y001561D03*
X013784Y001561D03*
X011918Y001561D03*
X010540Y001561D03*
X009162Y001561D03*
X007784Y001561D03*
X005918Y001561D03*
X004540Y001561D03*
X003162Y001561D03*
X001784Y001561D03*
X001662Y023640D03*
X003040Y023640D03*
X023918Y001561D03*
D14*
X016851Y010101D03*
X016851Y012101D03*
X013851Y012101D03*
X013851Y010101D03*
X010851Y010101D03*
X010851Y012101D03*
X007851Y012101D03*
X007851Y010101D03*
X008851Y016101D03*
X008851Y017101D03*
X011851Y017101D03*
X011851Y016101D03*
X014851Y016101D03*
X014851Y017101D03*
X017851Y017101D03*
X017851Y016101D03*
M02*
