G75*
G70*
%OFA0B0*%
%FSLAX24Y24*%
%IPPOS*%
%LPD*%
%AMOC8*
5,1,8,0,0,1.08239X$1,22.5*
%
%ADD10C,0.0000*%
%ADD11R,0.0630X0.0710*%
%ADD12R,0.0591X0.0512*%
%ADD13R,0.0394X0.0551*%
%ADD14R,0.0551X0.0394*%
%ADD15R,0.0710X0.0630*%
D10*
X000101Y000101D02*
X000101Y025298D01*
X025298Y025298D01*
X025298Y000101D01*
X000101Y000101D01*
X001707Y013101D02*
X001709Y013140D01*
X001715Y013179D01*
X001725Y013217D01*
X001738Y013254D01*
X001755Y013289D01*
X001775Y013323D01*
X001799Y013354D01*
X001826Y013383D01*
X001855Y013409D01*
X001887Y013432D01*
X001921Y013452D01*
X001957Y013468D01*
X001994Y013480D01*
X002033Y013489D01*
X002072Y013494D01*
X002111Y013495D01*
X002150Y013492D01*
X002189Y013485D01*
X002226Y013474D01*
X002263Y013460D01*
X002298Y013442D01*
X002331Y013421D01*
X002362Y013396D01*
X002390Y013369D01*
X002415Y013339D01*
X002437Y013306D01*
X002456Y013272D01*
X002471Y013236D01*
X002483Y013198D01*
X002491Y013160D01*
X002495Y013121D01*
X002495Y013081D01*
X002491Y013042D01*
X002483Y013004D01*
X002471Y012966D01*
X002456Y012930D01*
X002437Y012896D01*
X002415Y012863D01*
X002390Y012833D01*
X002362Y012806D01*
X002331Y012781D01*
X002298Y012760D01*
X002263Y012742D01*
X002226Y012728D01*
X002189Y012717D01*
X002150Y012710D01*
X002111Y012707D01*
X002072Y012708D01*
X002033Y012713D01*
X001994Y012722D01*
X001957Y012734D01*
X001921Y012750D01*
X001887Y012770D01*
X001855Y012793D01*
X001826Y012819D01*
X001799Y012848D01*
X001775Y012879D01*
X001755Y012913D01*
X001738Y012948D01*
X001725Y012985D01*
X001715Y013023D01*
X001709Y013062D01*
X001707Y013101D01*
D11*
X001291Y010101D03*
X002411Y010101D03*
X004291Y010101D03*
X005411Y010101D03*
X005291Y017101D03*
X006411Y017101D03*
X003411Y017101D03*
X002291Y017101D03*
X020791Y022351D03*
X021911Y022351D03*
D12*
X014851Y007435D03*
X014851Y006766D03*
X013351Y004975D03*
X013351Y004227D03*
X010351Y006766D03*
X010351Y007435D03*
X008851Y004975D03*
X008851Y004227D03*
X005851Y006766D03*
X005851Y007435D03*
X004351Y004975D03*
X004351Y004227D03*
X001351Y006766D03*
X001351Y007435D03*
X003351Y011227D03*
X003351Y011975D03*
X006351Y011975D03*
X006351Y011227D03*
X004351Y015227D03*
X004351Y015975D03*
X001351Y015975D03*
X001351Y015227D03*
X017851Y004975D03*
X017851Y004227D03*
D13*
X005851Y015168D03*
X006225Y016034D03*
X005477Y016034D03*
X003225Y016034D03*
X002477Y016034D03*
X002851Y015168D03*
X001851Y012034D03*
X002225Y011168D03*
X001477Y011168D03*
X004477Y011168D03*
X005225Y011168D03*
X004851Y012034D03*
D14*
X004284Y007475D03*
X004284Y006727D03*
X003418Y007101D03*
X007918Y007101D03*
X008784Y007475D03*
X008784Y006727D03*
X012418Y007101D03*
X013284Y007475D03*
X013284Y006727D03*
X016668Y007101D03*
X017534Y007475D03*
X017534Y006727D03*
D15*
X016351Y005161D03*
X016351Y004041D03*
X014851Y004041D03*
X014851Y005161D03*
X011851Y005161D03*
X011851Y004041D03*
X010351Y004041D03*
X010351Y005161D03*
X007351Y005161D03*
X007351Y004041D03*
X005851Y004041D03*
X005851Y005161D03*
X002851Y005161D03*
X002851Y004041D03*
X001351Y004041D03*
X001351Y005161D03*
X019351Y004661D03*
X019351Y005791D03*
X019351Y006911D03*
X021101Y006911D03*
X021101Y005791D03*
X021101Y004661D03*
X021101Y003541D03*
X022601Y003541D03*
X022601Y004661D03*
X022601Y005791D03*
X022601Y006911D03*
X024351Y006911D03*
X024351Y005791D03*
X024351Y004661D03*
X024351Y003541D03*
X019351Y003541D03*
M02*
