G75*
G70*
%OFA0B0*%
%FSLAX24Y24*%
%IPPOS*%
%LPD*%
%AMOC8*
5,1,8,0,0,1.08239X$1,22.5*
%
%ADD10C,0.0000*%
%ADD11R,0.0630X0.0710*%
%ADD12R,0.0591X0.0512*%
%ADD13OC8,0.0594*%
%ADD14C,0.0669*%
%ADD15C,0.0660*%
%ADD16R,0.0394X0.0551*%
%ADD17R,0.0551X0.0394*%
%ADD18R,0.0710X0.0630*%
%ADD19C,0.0160*%
%ADD20C,0.0100*%
%ADD21C,0.0400*%
%ADD22C,0.0356*%
%ADD23OC8,0.0591*%
D10*
X000101Y000101D02*
X000101Y025298D01*
X025298Y025298D01*
X025298Y000101D01*
X000101Y000101D01*
X001707Y013101D02*
X001709Y013140D01*
X001715Y013179D01*
X001725Y013217D01*
X001738Y013254D01*
X001755Y013289D01*
X001775Y013323D01*
X001799Y013354D01*
X001826Y013383D01*
X001855Y013409D01*
X001887Y013432D01*
X001921Y013452D01*
X001957Y013468D01*
X001994Y013480D01*
X002033Y013489D01*
X002072Y013494D01*
X002111Y013495D01*
X002150Y013492D01*
X002189Y013485D01*
X002226Y013474D01*
X002263Y013460D01*
X002298Y013442D01*
X002331Y013421D01*
X002362Y013396D01*
X002390Y013369D01*
X002415Y013339D01*
X002437Y013306D01*
X002456Y013272D01*
X002471Y013236D01*
X002483Y013198D01*
X002491Y013160D01*
X002495Y013121D01*
X002495Y013081D01*
X002491Y013042D01*
X002483Y013004D01*
X002471Y012966D01*
X002456Y012930D01*
X002437Y012896D01*
X002415Y012863D01*
X002390Y012833D01*
X002362Y012806D01*
X002331Y012781D01*
X002298Y012760D01*
X002263Y012742D01*
X002226Y012728D01*
X002189Y012717D01*
X002150Y012710D01*
X002111Y012707D01*
X002072Y012708D01*
X002033Y012713D01*
X001994Y012722D01*
X001957Y012734D01*
X001921Y012750D01*
X001887Y012770D01*
X001855Y012793D01*
X001826Y012819D01*
X001799Y012848D01*
X001775Y012879D01*
X001755Y012913D01*
X001738Y012948D01*
X001725Y012985D01*
X001715Y013023D01*
X001709Y013062D01*
X001707Y013101D01*
D11*
X001291Y010101D03*
X002411Y010101D03*
X004291Y010101D03*
X005411Y010101D03*
X005291Y017101D03*
X006411Y017101D03*
X003411Y017101D03*
X002291Y017101D03*
X020791Y022351D03*
X021911Y022351D03*
D12*
X014851Y007435D03*
X014851Y006766D03*
X013351Y004975D03*
X013351Y004227D03*
X010351Y006766D03*
X010351Y007435D03*
X008851Y004975D03*
X008851Y004227D03*
X005851Y006766D03*
X005851Y007435D03*
X004351Y004975D03*
X004351Y004227D03*
X001351Y006766D03*
X001351Y007435D03*
X003351Y011227D03*
X003351Y011975D03*
X006351Y011975D03*
X006351Y011227D03*
X004351Y015227D03*
X004351Y015975D03*
X001351Y015975D03*
X001351Y015227D03*
X017851Y004975D03*
X017851Y004227D03*
D13*
X023101Y008601D03*
X023101Y009601D03*
X023101Y010601D03*
X023101Y011601D03*
X023101Y012601D03*
X023101Y013601D03*
X023101Y014601D03*
X023101Y015601D03*
X023101Y016601D03*
X023101Y017601D03*
X023101Y018601D03*
X023101Y019601D03*
X023101Y020601D03*
X023101Y021601D03*
X024101Y021601D03*
X024101Y020601D03*
X024101Y019601D03*
X024101Y018601D03*
X024101Y017601D03*
X024101Y016601D03*
X024101Y015601D03*
X024101Y014601D03*
X024101Y013601D03*
X024101Y012601D03*
X024101Y011601D03*
X024101Y010601D03*
X024101Y009601D03*
X024101Y008601D03*
D14*
X023918Y001561D03*
X022540Y001561D03*
X021162Y001561D03*
X019784Y001561D03*
X017918Y001561D03*
X016540Y001561D03*
X015162Y001561D03*
X013784Y001561D03*
X011918Y001561D03*
X010540Y001561D03*
X009162Y001561D03*
X007784Y001561D03*
X005918Y001561D03*
X004540Y001561D03*
X003162Y001561D03*
X001784Y001561D03*
X001662Y023640D03*
X003040Y023640D03*
D15*
X008851Y017101D03*
X008851Y016101D03*
X011851Y016101D03*
X011851Y017101D03*
X014851Y017101D03*
X014851Y016101D03*
X017851Y016101D03*
X017851Y017101D03*
X016851Y012101D03*
X016851Y010101D03*
X013851Y010101D03*
X013851Y012101D03*
X010851Y012101D03*
X010851Y010101D03*
X007851Y010101D03*
X007851Y012101D03*
D16*
X005225Y011168D03*
X004477Y011168D03*
X004851Y012034D03*
X002225Y011168D03*
X001477Y011168D03*
X001851Y012034D03*
X002851Y015168D03*
X003225Y016034D03*
X002477Y016034D03*
X005477Y016034D03*
X006225Y016034D03*
X005851Y015168D03*
D17*
X004284Y007475D03*
X004284Y006727D03*
X003418Y007101D03*
X007918Y007101D03*
X008784Y007475D03*
X008784Y006727D03*
X012418Y007101D03*
X013284Y007475D03*
X013284Y006727D03*
X016668Y007101D03*
X017534Y007475D03*
X017534Y006727D03*
D18*
X016351Y005161D03*
X016351Y004041D03*
X014851Y004041D03*
X014851Y005161D03*
X011851Y005161D03*
X011851Y004041D03*
X010351Y004041D03*
X010351Y005161D03*
X007351Y005161D03*
X007351Y004041D03*
X005851Y004041D03*
X005851Y005161D03*
X002851Y005161D03*
X002851Y004041D03*
X001351Y004041D03*
X001351Y005161D03*
X019351Y004661D03*
X019351Y005791D03*
X019351Y006911D03*
X021101Y006911D03*
X021101Y005791D03*
X021101Y004661D03*
X021101Y003541D03*
X022601Y003541D03*
X022601Y004661D03*
X022601Y005791D03*
X022601Y006911D03*
X024351Y006911D03*
X024351Y005791D03*
X024351Y004661D03*
X024351Y003541D03*
X019351Y003541D03*
D19*
X019351Y001994D01*
X019784Y001561D01*
X021101Y001622D02*
X021162Y001561D01*
X021101Y001622D02*
X021101Y003541D01*
X021041Y004601D02*
X020351Y004601D01*
X020397Y005179D02*
X020236Y005179D01*
X020081Y005115D01*
X020045Y005202D01*
X019932Y005315D01*
X019838Y005354D01*
X019850Y005365D01*
X019873Y005406D01*
X019886Y005452D01*
X019886Y005713D01*
X019429Y005713D01*
X019429Y005868D01*
X019886Y005868D01*
X019886Y006130D01*
X019873Y006175D01*
X019850Y006216D01*
X019845Y006221D01*
X019932Y006257D01*
X020033Y006357D01*
X020236Y006273D01*
X020466Y006273D01*
X020492Y006284D01*
X020519Y006257D01*
X020606Y006221D01*
X020602Y006216D01*
X020578Y006175D01*
X020566Y006130D01*
X020566Y005868D01*
X021023Y005868D01*
X021023Y005713D01*
X020566Y005713D01*
X020566Y005452D01*
X020578Y005406D01*
X020602Y005365D01*
X020614Y005354D01*
X020519Y005315D01*
X020407Y005202D01*
X020397Y005179D01*
X020224Y005174D02*
X020056Y005174D01*
X019889Y005333D02*
X020563Y005333D01*
X020566Y005491D02*
X019886Y005491D01*
X019886Y005650D02*
X020566Y005650D01*
X020566Y005967D02*
X019886Y005967D01*
X019886Y006125D02*
X020566Y006125D01*
X020208Y006284D02*
X019960Y006284D01*
X020351Y006851D02*
X021101Y006851D01*
X021101Y006911D01*
X021101Y008601D01*
X022101Y009601D01*
X023101Y009601D01*
X023601Y010101D02*
X021601Y010101D01*
X019351Y007851D01*
X019351Y006911D01*
X019351Y006851D01*
X018601Y006851D01*
X018202Y006432D02*
X018273Y006361D01*
X018486Y006273D01*
X018716Y006273D01*
X018742Y006284D01*
X018769Y006257D01*
X018856Y006221D01*
X018852Y006216D01*
X018828Y006175D01*
X018816Y006130D01*
X018816Y005868D01*
X019273Y005868D01*
X019273Y005713D01*
X018816Y005713D01*
X018816Y005452D01*
X018828Y005406D01*
X018852Y005365D01*
X018864Y005354D01*
X018769Y005315D01*
X018657Y005202D01*
X018647Y005179D01*
X018546Y005179D01*
X018546Y005310D01*
X018485Y005457D01*
X018373Y005570D01*
X018226Y005631D01*
X017476Y005631D01*
X017329Y005570D01*
X017216Y005457D01*
X017215Y005455D01*
X017106Y005455D01*
X017106Y005555D01*
X017059Y005668D01*
X017123Y005694D01*
X017258Y005829D01*
X017559Y006130D01*
X017889Y006130D01*
X018036Y006191D01*
X018149Y006303D01*
X018202Y006432D01*
X018129Y006284D02*
X018458Y006284D01*
X018816Y006125D02*
X017554Y006125D01*
X017396Y005967D02*
X018816Y005967D01*
X019101Y005851D02*
X019161Y005791D01*
X019351Y005791D01*
X021101Y005791D01*
X022601Y005791D01*
X024351Y005791D01*
X024273Y005808D02*
X022679Y005808D01*
X022679Y005868D02*
X022679Y005713D01*
X023136Y005713D01*
X023136Y005452D01*
X023123Y005406D01*
X023100Y005365D01*
X023088Y005354D01*
X023182Y005315D01*
X023295Y005202D01*
X023331Y005115D01*
X023486Y005179D01*
X023647Y005179D01*
X023657Y005202D01*
X023769Y005315D01*
X023864Y005354D01*
X023852Y005365D01*
X023828Y005406D01*
X023816Y005452D01*
X023816Y005713D01*
X024273Y005713D01*
X024273Y005868D01*
X023816Y005868D01*
X023816Y006130D01*
X023828Y006175D01*
X023852Y006216D01*
X023856Y006221D01*
X023769Y006257D01*
X023742Y006284D01*
X023716Y006273D01*
X023486Y006273D01*
X023283Y006357D01*
X023182Y006257D01*
X023095Y006221D01*
X023100Y006216D01*
X023123Y006175D01*
X023136Y006130D01*
X023136Y005868D01*
X022679Y005868D01*
X022523Y005868D02*
X022523Y005713D01*
X022066Y005713D01*
X022066Y005452D01*
X022078Y005406D01*
X022102Y005365D01*
X022114Y005354D01*
X022019Y005315D01*
X021907Y005202D01*
X021897Y005179D01*
X021804Y005179D01*
X021795Y005202D01*
X021682Y005315D01*
X021588Y005354D01*
X021600Y005365D01*
X021623Y005406D01*
X021636Y005452D01*
X021636Y005713D01*
X021179Y005713D01*
X021179Y005868D01*
X021636Y005868D01*
X021636Y006130D01*
X021623Y006175D01*
X021600Y006216D01*
X021595Y006221D01*
X021682Y006257D01*
X021709Y006284D01*
X021736Y006273D01*
X021966Y006273D01*
X021992Y006284D01*
X022019Y006257D01*
X022106Y006221D01*
X022102Y006216D01*
X022078Y006175D01*
X022066Y006130D01*
X022066Y005868D01*
X022523Y005868D01*
X022523Y005808D02*
X021179Y005808D01*
X021023Y005808D02*
X019429Y005808D01*
X019273Y005808D02*
X017237Y005808D01*
X017066Y005650D02*
X018816Y005650D01*
X018816Y005491D02*
X018451Y005491D01*
X018537Y005333D02*
X018813Y005333D01*
X018601Y004601D02*
X019291Y004601D01*
X019351Y004661D01*
X019101Y005851D02*
X018351Y005851D01*
X018101Y006101D01*
X018101Y007351D01*
X017977Y007475D01*
X017975Y007475D01*
X019851Y009351D01*
X019851Y009601D01*
X019701Y009772D02*
X020593Y009772D01*
X020435Y009613D02*
X019542Y009613D01*
X019384Y009455D02*
X020276Y009455D01*
X020117Y009296D02*
X019225Y009296D01*
X019067Y009138D02*
X019959Y009138D01*
X019800Y008979D02*
X018908Y008979D01*
X018749Y008821D02*
X019642Y008821D01*
X019483Y008662D02*
X018591Y008662D01*
X018432Y008504D02*
X019325Y008504D01*
X019166Y008345D02*
X018274Y008345D01*
X018258Y008329D02*
X022123Y012194D01*
X022258Y012329D01*
X022331Y012505D01*
X022331Y015152D01*
X022447Y015269D01*
X022615Y015101D01*
X022404Y014889D01*
X022404Y014312D01*
X022615Y014101D01*
X022404Y013889D01*
X022404Y013312D01*
X022615Y013101D01*
X022404Y012889D01*
X022404Y012312D01*
X022615Y012101D01*
X022404Y011889D01*
X022404Y011312D01*
X022615Y011101D01*
X022404Y010889D01*
X022404Y010581D01*
X021696Y010581D01*
X021505Y010581D01*
X021329Y010508D01*
X019079Y008258D01*
X018944Y008123D01*
X018871Y007946D01*
X018871Y007607D01*
X018769Y007565D01*
X018657Y007452D01*
X018647Y007429D01*
X018486Y007429D01*
X018273Y007341D01*
X018116Y007183D01*
X018036Y007263D01*
X017989Y007282D01*
X017989Y007456D01*
X017553Y007456D01*
X017553Y007493D01*
X017989Y007493D01*
X017989Y007695D01*
X017977Y007741D01*
X017953Y007782D01*
X017920Y007816D01*
X017879Y007839D01*
X017833Y007852D01*
X017552Y007852D01*
X017552Y007493D01*
X017515Y007493D01*
X017515Y007852D01*
X017235Y007852D01*
X017189Y007839D01*
X017148Y007816D01*
X017114Y007782D01*
X017091Y007741D01*
X017078Y007695D01*
X017078Y007675D01*
X017023Y007698D01*
X016313Y007698D01*
X016166Y007637D01*
X016137Y007608D01*
X015966Y007679D01*
X015736Y007679D01*
X015523Y007591D01*
X015361Y007428D01*
X015339Y007375D01*
X015326Y007380D01*
X015326Y007387D01*
X015309Y007387D01*
X015226Y007422D01*
X014899Y007422D01*
X014899Y007483D01*
X015326Y007483D01*
X015326Y007715D01*
X015314Y007761D01*
X015290Y007802D01*
X015257Y007835D01*
X015216Y007859D01*
X015170Y007871D01*
X014899Y007871D01*
X014899Y007484D01*
X014803Y007484D01*
X014803Y007871D01*
X014532Y007871D01*
X014486Y007859D01*
X014445Y007835D01*
X014411Y007802D01*
X014388Y007761D01*
X014376Y007715D01*
X014376Y007483D01*
X014803Y007483D01*
X014803Y007422D01*
X014476Y007422D01*
X014392Y007387D01*
X014376Y007387D01*
X014376Y007380D01*
X014329Y007361D01*
X014216Y007249D01*
X014156Y007102D01*
X014156Y006431D01*
X014216Y006284D01*
X013879Y006284D01*
X013899Y006303D02*
X013959Y006450D01*
X013959Y007003D01*
X013899Y007150D01*
X013786Y007263D01*
X013739Y007282D01*
X013739Y007456D01*
X013303Y007456D01*
X013303Y007493D01*
X013739Y007493D01*
X013739Y007695D01*
X013727Y007741D01*
X013703Y007782D01*
X013670Y007816D01*
X013629Y007839D01*
X013583Y007852D01*
X013302Y007852D01*
X013302Y007493D01*
X013265Y007493D01*
X013265Y007852D01*
X012985Y007852D01*
X012939Y007839D01*
X012898Y007816D01*
X012864Y007782D01*
X012841Y007741D01*
X012828Y007695D01*
X012828Y007675D01*
X012773Y007698D01*
X012063Y007698D01*
X011916Y007637D01*
X011860Y007581D01*
X011255Y007581D01*
X011079Y007508D01*
X011000Y007429D01*
X010986Y007429D01*
X010847Y007372D01*
X010826Y007380D01*
X010826Y007387D01*
X010809Y007387D01*
X010726Y007422D01*
X010399Y007422D01*
X010399Y007483D01*
X010826Y007483D01*
X010826Y007715D01*
X010814Y007761D01*
X010790Y007802D01*
X010757Y007835D01*
X010716Y007859D01*
X010670Y007871D01*
X010399Y007871D01*
X010399Y007484D01*
X010303Y007484D01*
X010303Y007871D01*
X010032Y007871D01*
X009986Y007859D01*
X009945Y007835D01*
X009911Y007802D01*
X009888Y007761D01*
X009876Y007715D01*
X009876Y007483D01*
X010303Y007483D01*
X010303Y007422D01*
X009976Y007422D01*
X009892Y007387D01*
X009876Y007387D01*
X009876Y007380D01*
X009829Y007361D01*
X009716Y007249D01*
X009656Y007102D01*
X009656Y006431D01*
X009716Y006284D01*
X009379Y006284D01*
X009399Y006303D02*
X009459Y006450D01*
X009459Y007003D01*
X009399Y007150D01*
X009286Y007263D01*
X009239Y007282D01*
X009239Y007456D01*
X008803Y007456D01*
X008803Y007493D01*
X009239Y007493D01*
X009239Y007695D01*
X009227Y007741D01*
X009203Y007782D01*
X009170Y007816D01*
X009129Y007839D01*
X009083Y007852D01*
X008802Y007852D01*
X008802Y007493D01*
X008765Y007493D01*
X008765Y007852D01*
X008485Y007852D01*
X008439Y007839D01*
X008398Y007816D01*
X008364Y007782D01*
X008341Y007741D01*
X008328Y007695D01*
X008328Y007675D01*
X008273Y007698D01*
X007563Y007698D01*
X007416Y007637D01*
X007360Y007581D01*
X007188Y007581D01*
X007178Y007591D01*
X006966Y007679D01*
X006736Y007679D01*
X006523Y007591D01*
X006361Y007428D01*
X006339Y007375D01*
X006326Y007380D01*
X006326Y007387D01*
X006309Y007387D01*
X006226Y007422D01*
X005899Y007422D01*
X005899Y007483D01*
X006326Y007483D01*
X006326Y007715D01*
X006314Y007761D01*
X006290Y007802D01*
X006257Y007835D01*
X006216Y007859D01*
X006170Y007871D01*
X005899Y007871D01*
X005899Y007484D01*
X005803Y007484D01*
X005803Y007871D01*
X005532Y007871D01*
X005486Y007859D01*
X005445Y007835D01*
X005411Y007802D01*
X005388Y007761D01*
X005376Y007715D01*
X005376Y007483D01*
X005803Y007483D01*
X005803Y007422D01*
X005476Y007422D01*
X005392Y007387D01*
X005376Y007387D01*
X005376Y007380D01*
X005329Y007361D01*
X005216Y007249D01*
X005156Y007102D01*
X005156Y006431D01*
X005216Y006284D01*
X004901Y006284D01*
X004894Y006299D02*
X004899Y006303D01*
X004959Y006450D01*
X004959Y007003D01*
X004899Y007150D01*
X004786Y007263D01*
X004739Y007282D01*
X004739Y007456D01*
X004303Y007456D01*
X004303Y007493D01*
X004739Y007493D01*
X004739Y007695D01*
X004727Y007741D01*
X004703Y007782D01*
X004670Y007816D01*
X004629Y007839D01*
X004583Y007852D01*
X004302Y007852D01*
X004302Y007493D01*
X004265Y007493D01*
X004265Y007852D01*
X003985Y007852D01*
X003939Y007839D01*
X003898Y007816D01*
X003864Y007782D01*
X003841Y007741D01*
X003828Y007695D01*
X003828Y007675D01*
X003773Y007698D01*
X003429Y007698D01*
X003429Y007716D01*
X003341Y007928D01*
X003178Y008091D01*
X002966Y008179D01*
X002736Y008179D01*
X002523Y008091D01*
X002361Y007928D01*
X002273Y007716D01*
X002273Y007581D01*
X002255Y007581D01*
X002079Y007508D01*
X001902Y007331D01*
X001873Y007361D01*
X001826Y007380D01*
X001826Y007387D01*
X001809Y007387D01*
X001726Y007422D01*
X001399Y007422D01*
X001399Y007483D01*
X001826Y007483D01*
X001826Y007715D01*
X001814Y007761D01*
X001790Y007802D01*
X001757Y007835D01*
X001716Y007859D01*
X001670Y007871D01*
X001399Y007871D01*
X001399Y007484D01*
X001303Y007484D01*
X001303Y007871D01*
X001032Y007871D01*
X000986Y007859D01*
X000945Y007835D01*
X000911Y007802D01*
X000888Y007761D01*
X000876Y007715D01*
X000876Y007483D01*
X001303Y007483D01*
X001303Y007422D01*
X000976Y007422D01*
X000892Y007387D01*
X000876Y007387D01*
X000876Y007380D01*
X000829Y007361D01*
X000716Y007249D01*
X000656Y007102D01*
X000656Y006431D01*
X000716Y006284D01*
X000601Y006284D01*
X000716Y006284D02*
X000829Y006171D01*
X000976Y006110D01*
X001622Y006110D01*
X001387Y005876D01*
X000916Y005876D01*
X000769Y005815D01*
X000657Y005702D01*
X000601Y005567D01*
X000601Y009606D01*
X000637Y009519D01*
X000749Y009407D01*
X000896Y009346D01*
X001685Y009346D01*
X001832Y009407D01*
X001945Y009519D01*
X001981Y009606D01*
X001985Y009602D01*
X002026Y009578D01*
X002072Y009566D01*
X002333Y009566D01*
X002333Y010023D01*
X002488Y010023D01*
X002488Y009566D01*
X002749Y009566D01*
X002795Y009578D01*
X002836Y009602D01*
X002870Y009635D01*
X002893Y009676D01*
X002906Y009722D01*
X002906Y009728D01*
X003023Y009611D01*
X003236Y009523D01*
X003466Y009523D01*
X003611Y009583D01*
X003637Y009519D01*
X003749Y009407D01*
X003896Y009346D01*
X004685Y009346D01*
X004832Y009407D01*
X004945Y009519D01*
X004981Y009606D01*
X004985Y009602D01*
X005026Y009578D01*
X005072Y009566D01*
X005333Y009566D01*
X005333Y010023D01*
X005488Y010023D01*
X005488Y009566D01*
X005749Y009566D01*
X005795Y009578D01*
X005836Y009602D01*
X005870Y009635D01*
X005893Y009676D01*
X005906Y009722D01*
X005906Y009728D01*
X006023Y009611D01*
X006236Y009523D01*
X006371Y009523D01*
X006371Y009438D01*
X006361Y009428D01*
X006273Y009216D01*
X006273Y008986D01*
X006361Y008773D01*
X006523Y008611D01*
X006736Y008523D01*
X006966Y008523D01*
X007178Y008611D01*
X007341Y008773D01*
X007429Y008986D01*
X007429Y009216D01*
X007341Y009428D01*
X007331Y009438D01*
X007331Y009588D01*
X007437Y009482D01*
X007706Y009371D01*
X007996Y009371D01*
X008264Y009482D01*
X008470Y009687D01*
X008581Y009956D01*
X008581Y010246D01*
X008470Y010514D01*
X008363Y010621D01*
X010338Y010621D01*
X010232Y010514D01*
X010121Y010246D01*
X010121Y009956D01*
X010232Y009687D01*
X010437Y009482D01*
X010604Y009413D01*
X010523Y009216D01*
X010523Y008986D01*
X010611Y008773D01*
X010773Y008611D01*
X010986Y008523D01*
X011216Y008523D01*
X011428Y008611D01*
X011438Y008621D01*
X015273Y008621D01*
X015273Y008486D01*
X015361Y008273D01*
X015523Y008111D01*
X015736Y008023D01*
X015966Y008023D01*
X016178Y008111D01*
X016188Y008121D01*
X017946Y008121D01*
X018123Y008194D01*
X018258Y008329D01*
X018105Y008186D02*
X019008Y008186D01*
X018905Y008028D02*
X015979Y008028D01*
X015723Y008028D02*
X003241Y008028D01*
X003365Y007869D02*
X005525Y007869D01*
X005376Y007711D02*
X004735Y007711D01*
X004739Y007552D02*
X005376Y007552D01*
X005351Y007601D02*
X005351Y009101D01*
X005351Y010101D01*
X005411Y010101D01*
X005225Y010287D01*
X005225Y011168D01*
X005243Y011186D02*
X005243Y011149D01*
X005243Y010712D01*
X005445Y010712D01*
X005491Y010724D01*
X005532Y010748D01*
X005566Y010782D01*
X005589Y010823D01*
X005602Y010868D01*
X005602Y011149D01*
X005243Y011149D01*
X005206Y011149D01*
X005206Y010712D01*
X005032Y010712D01*
X005013Y010666D01*
X004970Y010623D01*
X004981Y010595D01*
X004985Y010600D01*
X005026Y010623D01*
X005072Y010636D01*
X005333Y010636D01*
X005333Y010179D01*
X005488Y010179D01*
X005488Y010636D01*
X005749Y010636D01*
X005795Y010623D01*
X005836Y010600D01*
X005870Y010566D01*
X005871Y010564D01*
X005871Y010614D01*
X005829Y010632D01*
X005716Y010744D01*
X005656Y010891D01*
X005656Y011554D01*
X005566Y011554D01*
X005566Y011554D01*
X005589Y011513D01*
X005602Y011467D01*
X005602Y011186D01*
X005243Y011186D01*
X005243Y011040D02*
X005206Y011040D01*
X005206Y010882D02*
X005243Y010882D01*
X005243Y010723D02*
X005206Y010723D01*
X005333Y010565D02*
X005488Y010565D01*
X005487Y010723D02*
X005737Y010723D01*
X005659Y010882D02*
X005602Y010882D01*
X005602Y011040D02*
X005656Y011040D01*
X005656Y011199D02*
X005602Y011199D01*
X005602Y011357D02*
X005656Y011357D01*
X005656Y011516D02*
X005588Y011516D01*
X006351Y011227D02*
X006351Y010101D01*
X006851Y010101D02*
X006851Y009101D01*
X006472Y008662D02*
X000601Y008662D01*
X000601Y008504D02*
X015273Y008504D01*
X015331Y008345D02*
X000601Y008345D01*
X000601Y008186D02*
X015447Y008186D01*
X015516Y008101D02*
X014851Y007435D01*
X014803Y007552D02*
X014899Y007552D01*
X014899Y007711D02*
X014803Y007711D01*
X014803Y007869D02*
X014899Y007869D01*
X015177Y007869D02*
X018871Y007869D01*
X018871Y007711D02*
X017985Y007711D01*
X017989Y007552D02*
X018757Y007552D01*
X018401Y007394D02*
X017989Y007394D01*
X017975Y007475D02*
X017534Y007475D01*
X017534Y007668D01*
X017101Y008101D01*
X015516Y008101D01*
X015326Y007711D02*
X017082Y007711D01*
X017515Y007711D02*
X017552Y007711D01*
X017552Y007552D02*
X017515Y007552D01*
X018063Y007235D02*
X018168Y007235D01*
X017534Y006727D02*
X017477Y006727D01*
X016851Y006101D01*
X015791Y006101D01*
X014851Y005161D01*
X014096Y005174D02*
X014046Y005174D01*
X014046Y005051D02*
X014046Y005310D01*
X013985Y005457D01*
X013873Y005570D01*
X013726Y005631D01*
X012976Y005631D01*
X012829Y005570D01*
X012716Y005457D01*
X012715Y005455D01*
X012606Y005455D01*
X012606Y005555D01*
X012559Y005668D01*
X012623Y005694D01*
X012758Y005829D01*
X013059Y006130D01*
X013639Y006130D01*
X013786Y006191D01*
X013899Y006303D01*
X013956Y006443D02*
X014156Y006443D01*
X014156Y006601D02*
X013959Y006601D01*
X013959Y006760D02*
X014156Y006760D01*
X014156Y006918D02*
X013959Y006918D01*
X013929Y007077D02*
X014156Y007077D01*
X014211Y007235D02*
X013813Y007235D01*
X013739Y007394D02*
X014408Y007394D01*
X014376Y007552D02*
X013739Y007552D01*
X013735Y007711D02*
X014376Y007711D01*
X014525Y007869D02*
X010677Y007869D01*
X010826Y007711D02*
X012832Y007711D01*
X012851Y008101D02*
X011016Y008101D01*
X010351Y007435D01*
X010303Y007552D02*
X010399Y007552D01*
X010399Y007711D02*
X010303Y007711D01*
X010303Y007869D02*
X010399Y007869D01*
X010025Y007869D02*
X006177Y007869D01*
X006326Y007711D02*
X008332Y007711D01*
X008351Y008101D02*
X006516Y008101D01*
X005851Y007435D01*
X005803Y007552D02*
X005899Y007552D01*
X005851Y007601D02*
X005351Y007601D01*
X004351Y007601D01*
X004302Y007552D02*
X004265Y007552D01*
X004284Y007475D02*
X004284Y007668D01*
X003851Y008101D01*
X002351Y008101D01*
X002351Y010101D01*
X002411Y010101D02*
X002225Y010287D01*
X002225Y011168D01*
X002243Y011186D02*
X002243Y011149D01*
X002243Y010712D01*
X002445Y010712D01*
X002491Y010724D01*
X002532Y010748D01*
X002566Y010782D01*
X002589Y010823D01*
X002602Y010868D01*
X002602Y011149D01*
X002243Y011149D01*
X002206Y011149D01*
X002206Y010712D01*
X002032Y010712D01*
X002013Y010666D01*
X001970Y010623D01*
X001981Y010595D01*
X001985Y010600D01*
X002026Y010623D01*
X002072Y010636D01*
X002333Y010636D01*
X002333Y010179D01*
X002488Y010179D01*
X002488Y010636D01*
X002749Y010636D01*
X002795Y010623D01*
X002836Y010600D01*
X002870Y010566D01*
X002871Y010564D01*
X002871Y010614D01*
X002829Y010632D01*
X002716Y010744D01*
X002656Y010891D01*
X002656Y011495D01*
X002594Y011495D01*
X002602Y011467D01*
X002602Y011186D01*
X002243Y011186D01*
X002243Y011040D02*
X002206Y011040D01*
X002206Y010882D02*
X002243Y010882D01*
X002243Y010723D02*
X002206Y010723D01*
X002333Y010565D02*
X002488Y010565D01*
X002487Y010723D02*
X002737Y010723D01*
X002659Y010882D02*
X002602Y010882D01*
X002602Y011040D02*
X002656Y011040D01*
X002656Y011199D02*
X002602Y011199D01*
X002602Y011357D02*
X002656Y011357D01*
X003351Y011227D02*
X003351Y010101D01*
X003021Y009613D02*
X002848Y009613D01*
X002488Y009613D02*
X002333Y009613D01*
X002333Y009772D02*
X002488Y009772D01*
X002488Y009930D02*
X002333Y009930D01*
X002333Y010248D02*
X002488Y010248D01*
X002488Y010406D02*
X002333Y010406D01*
X002871Y010565D02*
X002871Y010565D01*
X003701Y009455D02*
X001881Y009455D01*
X001291Y010101D02*
X001477Y010287D01*
X001477Y011168D01*
X001410Y011101D01*
X001351Y011101D01*
X000851Y011601D01*
X000851Y013601D01*
X001429Y013577D02*
X001455Y013577D01*
X001429Y013551D02*
X001429Y013716D01*
X001341Y013928D01*
X001178Y014091D01*
X000966Y014179D01*
X000736Y014179D01*
X000601Y014123D01*
X000601Y024601D01*
X024601Y024601D01*
X024601Y022086D01*
X024389Y022298D01*
X023812Y022298D01*
X023601Y022086D01*
X023389Y022298D01*
X023083Y022298D01*
X022951Y022430D01*
X022951Y022470D01*
X022859Y022691D01*
X022691Y022859D01*
X022575Y022907D01*
X022565Y022932D01*
X022496Y023001D01*
X022718Y023001D01*
X022813Y022906D01*
X023389Y022906D01*
X023796Y023313D01*
X023796Y023889D01*
X023389Y024296D01*
X022813Y024296D01*
X022718Y024201D01*
X020481Y024201D01*
X009731Y024201D01*
X006231Y024201D01*
X004470Y024201D01*
X003518Y024201D01*
X003456Y024263D01*
X003186Y024375D01*
X002894Y024375D01*
X002624Y024263D01*
X002417Y024056D01*
X002305Y023786D01*
X002305Y023494D01*
X002417Y023224D01*
X002624Y023017D01*
X002894Y022906D01*
X003186Y022906D01*
X003256Y022934D01*
X002750Y022429D01*
X002736Y022429D01*
X002523Y022341D01*
X002361Y022178D01*
X002273Y021966D01*
X002273Y021951D01*
X000944Y020623D01*
X000871Y020446D01*
X000871Y020255D01*
X000871Y016587D01*
X000829Y016570D01*
X000716Y016457D01*
X000656Y016310D01*
X000656Y015639D01*
X000671Y015601D01*
X000656Y015562D01*
X000656Y014891D01*
X000716Y014744D01*
X000829Y014632D01*
X000976Y014571D01*
X001726Y014571D01*
X001873Y014632D01*
X001929Y014688D01*
X002306Y014688D01*
X002315Y014666D01*
X002371Y014610D01*
X002371Y014505D01*
X002444Y014329D01*
X002944Y013829D01*
X003047Y013726D01*
X002944Y013623D01*
X002871Y013446D01*
X002871Y013316D01*
X002774Y013550D01*
X002550Y013774D01*
X002259Y013894D01*
X001943Y013894D01*
X001651Y013774D01*
X001429Y013551D01*
X001421Y013736D02*
X001613Y013736D01*
X001355Y013894D02*
X001942Y013894D01*
X002260Y013894D02*
X002879Y013894D01*
X003037Y013736D02*
X002588Y013736D01*
X002747Y013577D02*
X002925Y013577D01*
X002871Y013418D02*
X002828Y013418D01*
X003351Y013351D02*
X003351Y011975D01*
X001910Y011975D01*
X001851Y012034D01*
X003351Y013351D02*
X003601Y013601D01*
X012351Y013601D01*
X014851Y016101D01*
X014851Y017101D02*
X017851Y017101D01*
X017851Y016101D02*
X014851Y013101D01*
X007851Y013101D01*
X006351Y012101D01*
X006351Y011975D01*
X006292Y012034D01*
X004851Y012034D01*
X004351Y011601D02*
X004351Y012601D01*
X004351Y011601D02*
X004477Y011475D01*
X004477Y011168D01*
X004477Y010287D01*
X004291Y010101D01*
X004881Y009455D02*
X006371Y009455D01*
X006306Y009296D02*
X000601Y009296D01*
X000601Y009138D02*
X006273Y009138D01*
X006275Y008979D02*
X000601Y008979D01*
X000601Y008821D02*
X006341Y008821D01*
X006021Y009613D02*
X005848Y009613D01*
X005488Y009613D02*
X005333Y009613D01*
X005333Y009772D02*
X005488Y009772D01*
X005488Y009930D02*
X005333Y009930D01*
X005333Y010248D02*
X005488Y010248D01*
X005488Y010406D02*
X005333Y010406D01*
X005871Y010565D02*
X005871Y010565D01*
X006851Y010101D02*
X007851Y011101D01*
X018351Y011101D01*
X020601Y013351D01*
X020601Y016851D01*
X021351Y017601D01*
X023101Y017601D01*
X023601Y018101D02*
X010351Y018101D01*
X009351Y019101D01*
X001851Y019101D01*
X002188Y018621D02*
X003096Y018621D01*
X003023Y018591D01*
X002861Y018428D01*
X002773Y018216D01*
X002773Y017986D01*
X002857Y017783D01*
X002757Y017682D01*
X002721Y017595D01*
X002716Y017600D01*
X002675Y017623D01*
X002630Y017636D01*
X002368Y017636D01*
X002368Y017179D01*
X002213Y017179D01*
X002213Y017636D01*
X001952Y017636D01*
X001906Y017623D01*
X001865Y017600D01*
X001832Y017566D01*
X001831Y017564D01*
X001831Y018523D01*
X001966Y018523D01*
X002178Y018611D01*
X002188Y018621D01*
X001831Y018492D02*
X002924Y018492D01*
X002851Y018601D02*
X004851Y018601D01*
X005351Y018101D01*
X005351Y017101D01*
X005291Y017101D01*
X005351Y017101D02*
X005351Y016160D01*
X005477Y016034D01*
X005495Y016053D02*
X005458Y016053D01*
X005458Y016489D01*
X005256Y016489D01*
X005210Y016477D01*
X005169Y016453D01*
X005136Y016420D01*
X005112Y016379D01*
X005100Y016333D01*
X005100Y016052D01*
X005458Y016052D01*
X005458Y016015D01*
X005100Y016015D01*
X005100Y015735D01*
X005112Y015689D01*
X005136Y015648D01*
X005136Y015648D01*
X005046Y015648D01*
X005046Y016310D01*
X004985Y016457D01*
X004873Y016570D01*
X004831Y016587D01*
X004831Y016637D01*
X004832Y016635D01*
X004865Y016602D01*
X004906Y016578D01*
X004952Y016566D01*
X005213Y016566D01*
X005213Y017023D01*
X005368Y017023D01*
X005368Y016566D01*
X005630Y016566D01*
X005675Y016578D01*
X005716Y016602D01*
X005721Y016606D01*
X005732Y016579D01*
X005689Y016536D01*
X005670Y016489D01*
X005495Y016489D01*
X005495Y016053D01*
X005495Y016114D02*
X005458Y016114D01*
X005458Y016272D02*
X005495Y016272D01*
X005495Y016431D02*
X005458Y016431D01*
X005368Y016589D02*
X005213Y016589D01*
X005213Y016748D02*
X005368Y016748D01*
X005368Y016906D02*
X005213Y016906D01*
X005213Y017179D02*
X005213Y017636D01*
X004952Y017636D01*
X004906Y017623D01*
X004865Y017600D01*
X004832Y017566D01*
X004808Y017525D01*
X004796Y017479D01*
X004796Y017473D01*
X004678Y017591D01*
X004466Y017679D01*
X004236Y017679D01*
X004091Y017619D01*
X004065Y017682D01*
X003952Y017795D01*
X003865Y017831D01*
X003929Y017986D01*
X003929Y018216D01*
X003841Y018428D01*
X003678Y018591D01*
X003606Y018621D01*
X009152Y018621D01*
X009635Y018137D01*
X009523Y018091D01*
X009361Y017928D01*
X009273Y017716D01*
X009273Y017711D01*
X009264Y017720D01*
X008996Y017831D01*
X008706Y017831D01*
X008437Y017720D01*
X008232Y017514D01*
X008121Y017246D01*
X008121Y016956D01*
X008232Y016687D01*
X008318Y016601D01*
X008232Y016514D01*
X008121Y016246D01*
X008121Y016050D01*
X007652Y015581D01*
X006781Y015581D01*
X006822Y015679D01*
X006822Y016353D01*
X006952Y016407D01*
X007065Y016519D01*
X007091Y016583D01*
X007236Y016523D01*
X007466Y016523D01*
X007678Y016611D01*
X007841Y016773D01*
X007929Y016986D01*
X007929Y017216D01*
X007841Y017428D01*
X007678Y017591D01*
X007466Y017679D01*
X007236Y017679D01*
X007091Y017619D01*
X007065Y017682D01*
X006952Y017795D01*
X006805Y017856D01*
X006016Y017856D01*
X005869Y017795D01*
X005757Y017682D01*
X005721Y017595D01*
X005716Y017600D01*
X005675Y017623D01*
X005630Y017636D01*
X005368Y017636D01*
X005368Y017179D01*
X005213Y017179D01*
X005213Y017223D02*
X005368Y017223D01*
X005368Y017382D02*
X005213Y017382D01*
X005213Y017541D02*
X005368Y017541D01*
X005773Y017699D02*
X004048Y017699D01*
X003876Y017858D02*
X009331Y017858D01*
X009449Y018016D02*
X003929Y018016D01*
X003929Y018175D02*
X009598Y018175D01*
X009439Y018333D02*
X003880Y018333D01*
X003777Y018492D02*
X009281Y018492D01*
X009851Y017601D02*
X009851Y017101D01*
X008851Y017101D01*
X008207Y016748D02*
X007815Y016748D01*
X007896Y016906D02*
X008141Y016906D01*
X008121Y017065D02*
X007929Y017065D01*
X007926Y017223D02*
X008121Y017223D01*
X008177Y017382D02*
X007860Y017382D01*
X007729Y017541D02*
X008258Y017541D01*
X008417Y017699D02*
X007048Y017699D01*
X007351Y017101D02*
X006411Y017101D01*
X006225Y016915D01*
X006225Y016034D01*
X006822Y015955D02*
X008026Y015955D01*
X008121Y016114D02*
X006822Y016114D01*
X006822Y016272D02*
X008132Y016272D01*
X008197Y016431D02*
X006976Y016431D01*
X006822Y015797D02*
X007868Y015797D01*
X007709Y015638D02*
X006805Y015638D01*
X005851Y015168D02*
X005851Y015101D01*
X007851Y015101D01*
X008851Y016101D01*
X008307Y016589D02*
X007627Y016589D01*
X005728Y016589D02*
X005695Y016589D01*
X005147Y016431D02*
X004996Y016431D01*
X005046Y016272D02*
X005100Y016272D01*
X005100Y016114D02*
X005046Y016114D01*
X005046Y015955D02*
X005100Y015955D01*
X005100Y015797D02*
X005046Y015797D01*
X004351Y015975D02*
X004351Y017101D01*
X004729Y017541D02*
X004817Y017541D01*
X004831Y016589D02*
X004887Y016589D01*
X004351Y015227D02*
X004351Y015168D01*
X005851Y015168D01*
X003351Y016101D02*
X003225Y016101D01*
X003225Y016034D01*
X003351Y016101D02*
X003351Y017101D01*
X003411Y017101D01*
X003351Y017161D01*
X003351Y018101D01*
X002821Y018333D02*
X001831Y018333D01*
X001831Y018175D02*
X002773Y018175D01*
X002773Y018016D02*
X001831Y018016D01*
X001831Y017858D02*
X002826Y017858D01*
X002773Y017699D02*
X001831Y017699D01*
X002213Y017541D02*
X002368Y017541D01*
X002368Y017382D02*
X002213Y017382D01*
X002213Y017223D02*
X002368Y017223D01*
X002351Y017101D02*
X002351Y018101D01*
X002851Y018601D01*
X003851Y019601D02*
X009851Y019601D01*
X010851Y018601D01*
X023101Y018601D01*
X023601Y019101D02*
X011351Y019101D01*
X010351Y020101D01*
X001851Y020101D01*
X001351Y020351D02*
X002851Y021851D01*
X004351Y023351D01*
X004351Y023601D01*
X003252Y022931D02*
X003247Y022931D01*
X003094Y022772D02*
X000601Y022772D01*
X000601Y022614D02*
X002935Y022614D01*
X002777Y022455D02*
X000601Y022455D01*
X000601Y022297D02*
X002479Y022297D01*
X002344Y022138D02*
X000601Y022138D01*
X000601Y021980D02*
X002279Y021980D01*
X002142Y021821D02*
X000601Y021821D01*
X000601Y021663D02*
X001984Y021663D01*
X001825Y021504D02*
X000601Y021504D01*
X000601Y021346D02*
X001667Y021346D01*
X001508Y021187D02*
X000601Y021187D01*
X000601Y021029D02*
X001350Y021029D01*
X001191Y020870D02*
X000601Y020870D01*
X000601Y020711D02*
X001033Y020711D01*
X000915Y020553D02*
X000601Y020553D01*
X000601Y020394D02*
X000871Y020394D01*
X000871Y020236D02*
X000601Y020236D01*
X000601Y020077D02*
X000871Y020077D01*
X000871Y019919D02*
X000601Y019919D01*
X000601Y019760D02*
X000871Y019760D01*
X000871Y019602D02*
X000601Y019602D01*
X000601Y019443D02*
X000871Y019443D01*
X000871Y019285D02*
X000601Y019285D01*
X000601Y019126D02*
X000871Y019126D01*
X000871Y018967D02*
X000601Y018967D01*
X000601Y018809D02*
X000871Y018809D01*
X000871Y018650D02*
X000601Y018650D01*
X000601Y018492D02*
X000871Y018492D01*
X000871Y018333D02*
X000601Y018333D01*
X000601Y018175D02*
X000871Y018175D01*
X000871Y018016D02*
X000601Y018016D01*
X000601Y017858D02*
X000871Y017858D01*
X000871Y017699D02*
X000601Y017699D01*
X000601Y017541D02*
X000871Y017541D01*
X000871Y017382D02*
X000601Y017382D01*
X000601Y017223D02*
X000871Y017223D01*
X000871Y017065D02*
X000601Y017065D01*
X000601Y016906D02*
X000871Y016906D01*
X000871Y016748D02*
X000601Y016748D01*
X000601Y016589D02*
X000871Y016589D01*
X000705Y016431D02*
X000601Y016431D01*
X000601Y016272D02*
X000656Y016272D01*
X000656Y016114D02*
X000601Y016114D01*
X000601Y015955D02*
X000656Y015955D01*
X000656Y015797D02*
X000601Y015797D01*
X000601Y015638D02*
X000656Y015638D01*
X000656Y015479D02*
X000601Y015479D01*
X000601Y015321D02*
X000656Y015321D01*
X000656Y015162D02*
X000601Y015162D01*
X000601Y015004D02*
X000656Y015004D01*
X000675Y014845D02*
X000601Y014845D01*
X000601Y014687D02*
X000774Y014687D01*
X000601Y014528D02*
X002371Y014528D01*
X002427Y014370D02*
X000601Y014370D01*
X000601Y014211D02*
X002562Y014211D01*
X002720Y014053D02*
X001216Y014053D01*
X001928Y014687D02*
X002306Y014687D01*
X002851Y014601D02*
X002851Y015168D01*
X001351Y015168D01*
X001351Y015227D01*
X002046Y015648D02*
X002046Y016310D01*
X001985Y016457D01*
X001873Y016570D01*
X001831Y016587D01*
X001831Y016637D01*
X001832Y016635D01*
X001865Y016602D01*
X001906Y016578D01*
X001952Y016566D01*
X002213Y016566D01*
X002213Y017023D01*
X002368Y017023D01*
X002368Y016566D01*
X002630Y016566D01*
X002675Y016578D01*
X002716Y016602D01*
X002721Y016606D01*
X002732Y016579D01*
X002689Y016536D01*
X002670Y016489D01*
X002495Y016489D01*
X002495Y016053D01*
X002458Y016053D01*
X002458Y016489D01*
X002256Y016489D01*
X002210Y016477D01*
X002169Y016453D01*
X002136Y016420D01*
X002112Y016379D01*
X002100Y016333D01*
X002100Y016052D01*
X002458Y016052D01*
X002458Y016015D01*
X002100Y016015D01*
X002100Y015735D01*
X002112Y015689D01*
X002136Y015648D01*
X002136Y015648D01*
X002046Y015648D01*
X002046Y015797D02*
X002100Y015797D01*
X002100Y015955D02*
X002046Y015955D01*
X002046Y016114D02*
X002100Y016114D01*
X002100Y016272D02*
X002046Y016272D01*
X001996Y016431D02*
X002147Y016431D01*
X002213Y016589D02*
X002368Y016589D01*
X002368Y016748D02*
X002213Y016748D01*
X002213Y016906D02*
X002368Y016906D01*
X002351Y017101D02*
X002291Y017101D01*
X002351Y017101D02*
X002351Y016160D01*
X002477Y016034D01*
X002458Y016114D02*
X002495Y016114D01*
X002495Y016272D02*
X002458Y016272D01*
X002458Y016431D02*
X002495Y016431D01*
X002695Y016589D02*
X002728Y016589D01*
X001887Y016589D02*
X001831Y016589D01*
X001351Y015975D02*
X001351Y020351D01*
X003351Y020601D02*
X010851Y020601D01*
X011851Y019601D01*
X023101Y019601D01*
X022595Y020081D02*
X012050Y020081D01*
X011510Y020621D01*
X022624Y020621D01*
X022624Y020619D01*
X023082Y020619D01*
X023082Y020582D01*
X022624Y020582D01*
X022624Y020403D01*
X022771Y020256D01*
X022595Y020081D01*
X022750Y020236D02*
X011895Y020236D01*
X011736Y020394D02*
X022633Y020394D01*
X022624Y020553D02*
X011577Y020553D01*
X009851Y023351D02*
X009851Y023601D01*
X007351Y021101D02*
X023601Y021101D01*
X024101Y020601D01*
X024101Y019601D02*
X023601Y019101D01*
X024101Y018601D02*
X023601Y018101D01*
X024101Y017601D02*
X023601Y017101D01*
X021851Y017101D01*
X021351Y016601D01*
X021351Y013101D01*
X017351Y009101D01*
X011101Y009101D01*
X010556Y009296D02*
X007396Y009296D01*
X007429Y009138D02*
X010523Y009138D01*
X010525Y008979D02*
X007426Y008979D01*
X007360Y008821D02*
X010591Y008821D01*
X010722Y008662D02*
X007230Y008662D01*
X007331Y009455D02*
X007503Y009455D01*
X008199Y009455D02*
X010503Y009455D01*
X010306Y009613D02*
X008396Y009613D01*
X008505Y009772D02*
X010197Y009772D01*
X010131Y009930D02*
X008570Y009930D01*
X008581Y010089D02*
X010121Y010089D01*
X010121Y010248D02*
X008580Y010248D01*
X008514Y010406D02*
X010187Y010406D01*
X010282Y010565D02*
X008419Y010565D01*
X008351Y008101D02*
X008784Y007668D01*
X008784Y007475D01*
X008765Y007552D02*
X008802Y007552D01*
X008802Y007711D02*
X008765Y007711D01*
X009235Y007711D02*
X009876Y007711D01*
X009876Y007552D02*
X009239Y007552D01*
X009239Y007394D02*
X009908Y007394D01*
X009711Y007235D02*
X009313Y007235D01*
X009429Y007077D02*
X009656Y007077D01*
X009656Y006918D02*
X009459Y006918D01*
X009459Y006760D02*
X009656Y006760D01*
X009656Y006601D02*
X009459Y006601D01*
X009456Y006443D02*
X009656Y006443D01*
X009716Y006284D02*
X009829Y006171D01*
X009976Y006110D01*
X010622Y006110D01*
X010387Y005876D01*
X009916Y005876D01*
X009769Y005815D01*
X009657Y005702D01*
X009596Y005555D01*
X009596Y005051D01*
X009546Y005051D01*
X009546Y005310D01*
X009485Y005457D01*
X009373Y005570D01*
X009226Y005631D01*
X008476Y005631D01*
X008329Y005570D01*
X008216Y005457D01*
X008215Y005455D01*
X008106Y005455D01*
X008106Y005555D01*
X008059Y005668D01*
X008123Y005694D01*
X008258Y005829D01*
X008559Y006130D01*
X009139Y006130D01*
X009286Y006191D01*
X009399Y006303D01*
X009939Y006125D02*
X008554Y006125D01*
X008396Y005967D02*
X010478Y005967D01*
X010516Y006601D02*
X010351Y006766D01*
X010516Y006601D02*
X010851Y006601D01*
X011101Y006851D01*
X011351Y007101D01*
X012418Y007101D01*
X012977Y006727D02*
X012351Y006101D01*
X011291Y006101D01*
X010351Y005161D01*
X009763Y005808D02*
X008237Y005808D01*
X008066Y005650D02*
X009635Y005650D01*
X009596Y005491D02*
X009451Y005491D01*
X009537Y005333D02*
X009596Y005333D01*
X009596Y005174D02*
X009546Y005174D01*
X008851Y004975D02*
X007537Y004975D01*
X007351Y005161D01*
X008106Y005491D02*
X008250Y005491D01*
X007851Y006101D02*
X006791Y006101D01*
X005851Y005161D01*
X005416Y005876D02*
X005269Y005815D01*
X005157Y005702D01*
X005096Y005555D01*
X005096Y005051D01*
X005046Y005051D01*
X005046Y005310D01*
X004985Y005457D01*
X004873Y005570D01*
X004831Y005587D01*
X004831Y005763D01*
X004841Y005773D01*
X004929Y005986D01*
X004929Y006216D01*
X004894Y006299D01*
X004956Y006443D02*
X005156Y006443D01*
X005156Y006601D02*
X004959Y006601D01*
X004959Y006760D02*
X005156Y006760D01*
X005156Y006918D02*
X004959Y006918D01*
X004929Y007077D02*
X005156Y007077D01*
X005211Y007235D02*
X004813Y007235D01*
X004739Y007394D02*
X005408Y007394D01*
X005803Y007711D02*
X005899Y007711D01*
X005899Y007869D02*
X005803Y007869D01*
X006326Y007552D02*
X006485Y007552D01*
X006346Y007394D02*
X006294Y007394D01*
X006851Y007101D02*
X006351Y006601D01*
X006016Y006601D01*
X005851Y006766D01*
X006122Y006110D02*
X005476Y006110D01*
X005329Y006171D01*
X005216Y006284D01*
X005439Y006125D02*
X004929Y006125D01*
X004921Y005967D02*
X005978Y005967D01*
X005887Y005876D02*
X006122Y006110D01*
X005887Y005876D02*
X005416Y005876D01*
X005263Y005808D02*
X004855Y005808D01*
X004831Y005650D02*
X005135Y005650D01*
X005096Y005491D02*
X004951Y005491D01*
X005037Y005333D02*
X005096Y005333D01*
X005096Y005174D02*
X005046Y005174D01*
X004351Y004975D02*
X004351Y006101D01*
X004284Y006727D02*
X003977Y006727D01*
X003351Y006101D01*
X002291Y006101D01*
X001351Y005161D01*
X001478Y005967D02*
X000601Y005967D01*
X000601Y006125D02*
X000939Y006125D01*
X000656Y006443D02*
X000601Y006443D01*
X000601Y006601D02*
X000656Y006601D01*
X000656Y006760D02*
X000601Y006760D01*
X000601Y006918D02*
X000656Y006918D01*
X000656Y007077D02*
X000601Y007077D01*
X000601Y007235D02*
X000711Y007235D01*
X000601Y007394D02*
X000908Y007394D01*
X000876Y007552D02*
X000601Y007552D01*
X000601Y007711D02*
X000876Y007711D01*
X001025Y007869D02*
X000601Y007869D01*
X000601Y008028D02*
X002460Y008028D01*
X002351Y008101D02*
X002016Y008101D01*
X001351Y007435D01*
X001303Y007552D02*
X001399Y007552D01*
X001399Y007711D02*
X001303Y007711D01*
X001303Y007869D02*
X001399Y007869D01*
X001677Y007869D02*
X002336Y007869D01*
X002273Y007711D02*
X001826Y007711D01*
X001826Y007552D02*
X002187Y007552D01*
X001965Y007394D02*
X001794Y007394D01*
X002351Y007101D02*
X001851Y006601D01*
X001516Y006601D01*
X001351Y006766D01*
X002351Y007101D02*
X002851Y007101D01*
X002851Y007601D01*
X002851Y007101D02*
X003418Y007101D01*
X003429Y007711D02*
X003832Y007711D01*
X004265Y007711D02*
X004302Y007711D01*
X006851Y007101D02*
X007918Y007101D01*
X008477Y006727D02*
X007851Y006101D01*
X008477Y006727D02*
X008784Y006727D01*
X010794Y007394D02*
X010901Y007394D01*
X010826Y007552D02*
X011187Y007552D01*
X012851Y008101D02*
X013284Y007668D01*
X013284Y007475D01*
X013265Y007552D02*
X013302Y007552D01*
X013302Y007711D02*
X013265Y007711D01*
X013284Y006727D02*
X012977Y006727D01*
X013054Y006125D02*
X014439Y006125D01*
X014476Y006110D02*
X015122Y006110D01*
X014887Y005876D01*
X014416Y005876D01*
X014269Y005815D01*
X014157Y005702D01*
X014096Y005555D01*
X014096Y005051D01*
X014046Y005051D01*
X014037Y005333D02*
X014096Y005333D01*
X014096Y005491D02*
X013951Y005491D01*
X014135Y005650D02*
X012566Y005650D01*
X012606Y005491D02*
X012750Y005491D01*
X012737Y005808D02*
X014263Y005808D01*
X014329Y006171D02*
X014476Y006110D01*
X014329Y006171D02*
X014216Y006284D01*
X014851Y006766D02*
X015516Y006766D01*
X015851Y007101D01*
X016668Y007101D01*
X015485Y007552D02*
X015326Y007552D01*
X015346Y007394D02*
X015294Y007394D01*
X015851Y008601D02*
X017851Y008601D01*
X021851Y012601D01*
X021851Y015351D01*
X023101Y016601D01*
X022554Y015162D02*
X022341Y015162D01*
X022331Y015004D02*
X022518Y015004D01*
X022404Y014845D02*
X022331Y014845D01*
X022331Y014687D02*
X022404Y014687D01*
X022404Y014528D02*
X022331Y014528D01*
X022331Y014370D02*
X022404Y014370D01*
X022331Y014211D02*
X022505Y014211D01*
X022567Y014053D02*
X022331Y014053D01*
X022331Y013894D02*
X022409Y013894D01*
X022404Y013736D02*
X022331Y013736D01*
X022331Y013577D02*
X022404Y013577D01*
X022404Y013418D02*
X022331Y013418D01*
X022331Y013260D02*
X022456Y013260D01*
X022331Y013101D02*
X022615Y013101D01*
X022457Y012943D02*
X022331Y012943D01*
X022331Y012784D02*
X022404Y012784D01*
X022404Y012626D02*
X022331Y012626D01*
X022315Y012467D02*
X022404Y012467D01*
X022407Y012309D02*
X022237Y012309D01*
X022123Y012194D02*
X022123Y012194D01*
X022079Y012150D02*
X022566Y012150D01*
X022506Y011992D02*
X021920Y011992D01*
X021762Y011833D02*
X022404Y011833D01*
X022404Y011674D02*
X021603Y011674D01*
X021445Y011516D02*
X022404Y011516D01*
X022404Y011357D02*
X021286Y011357D01*
X021128Y011199D02*
X022517Y011199D01*
X022555Y011040D02*
X020969Y011040D01*
X020811Y010882D02*
X022404Y010882D01*
X022404Y010723D02*
X020652Y010723D01*
X020493Y010565D02*
X021466Y010565D01*
X021227Y010406D02*
X020335Y010406D01*
X020176Y010248D02*
X021069Y010248D01*
X020910Y010089D02*
X020018Y010089D01*
X019859Y009930D02*
X020752Y009930D01*
X022351Y008851D02*
X022351Y007161D01*
X022601Y006911D01*
X022601Y006851D01*
X021851Y006851D01*
X021636Y006125D02*
X022066Y006125D01*
X022066Y005967D02*
X021636Y005967D01*
X021636Y005650D02*
X022066Y005650D01*
X022066Y005491D02*
X021636Y005491D01*
X021639Y005333D02*
X022063Y005333D01*
X021851Y004601D02*
X022541Y004601D01*
X022601Y004661D01*
X023139Y005333D02*
X023813Y005333D01*
X023816Y005491D02*
X023136Y005491D01*
X023136Y005650D02*
X023816Y005650D01*
X023816Y005967D02*
X023136Y005967D01*
X023136Y006125D02*
X023816Y006125D01*
X023458Y006284D02*
X023210Y006284D01*
X023601Y006851D02*
X024351Y006851D01*
X024351Y006911D01*
X024351Y007351D01*
X023101Y008601D01*
X022601Y009101D02*
X023601Y009101D01*
X024101Y008601D01*
X024101Y009601D02*
X023601Y010101D01*
X022601Y009101D02*
X022351Y008851D01*
X023306Y005174D02*
X023474Y005174D01*
X023601Y004601D02*
X024291Y004601D01*
X024351Y004661D01*
X024351Y003541D02*
X024351Y001994D01*
X023918Y001561D01*
X022601Y001622D02*
X022540Y001561D01*
X022601Y001622D02*
X022601Y003541D01*
X021101Y004661D02*
X021041Y004601D01*
X017851Y004975D02*
X016537Y004975D01*
X016351Y005161D01*
X017106Y005491D02*
X017250Y005491D01*
X017851Y004227D02*
X016537Y004227D01*
X016351Y004041D01*
X014851Y004041D01*
X014791Y004041D01*
X013351Y002601D01*
X006957Y002601D01*
X005918Y001561D01*
X004540Y001561D02*
X006079Y003101D01*
X009351Y003101D01*
X010291Y004041D01*
X010351Y004041D01*
X011851Y004041D01*
X012037Y004227D01*
X013351Y004227D01*
X013351Y004975D02*
X012037Y004975D01*
X011851Y005161D01*
X012896Y005967D02*
X014978Y005967D01*
X008851Y004227D02*
X007537Y004227D01*
X007351Y004041D01*
X005851Y004041D01*
X005791Y004041D01*
X004851Y003101D01*
X004701Y003101D01*
X003162Y001561D01*
X001784Y001561D02*
X001351Y001994D01*
X001351Y004041D01*
X002851Y004041D01*
X003037Y004227D01*
X004351Y004227D01*
X004351Y004975D02*
X003037Y004975D01*
X002851Y005161D01*
X000763Y005808D02*
X000601Y005808D01*
X000601Y005650D02*
X000635Y005650D01*
X000601Y009455D02*
X000701Y009455D01*
X003351Y014101D02*
X009851Y014101D01*
X011851Y016101D01*
X011851Y017101D02*
X014851Y017101D01*
X011851Y017101D02*
X009851Y017101D01*
X006351Y023351D02*
X006351Y023601D01*
X003227Y024358D02*
X024601Y024358D01*
X024601Y024516D02*
X000601Y024516D01*
X000601Y024358D02*
X002853Y024358D01*
X002560Y024199D02*
X000601Y024199D01*
X000601Y024041D02*
X001338Y024041D01*
X001327Y024033D02*
X001269Y023975D01*
X001222Y023910D01*
X001185Y023838D01*
X001160Y023761D01*
X001147Y023681D01*
X001147Y023668D01*
X001633Y023668D01*
X001633Y023612D01*
X001147Y023612D01*
X001147Y023600D01*
X001160Y023520D01*
X001185Y023443D01*
X001222Y023370D01*
X001269Y023305D01*
X001327Y023248D01*
X001392Y023200D01*
X001464Y023163D01*
X001541Y023138D01*
X001621Y023126D01*
X001633Y023126D01*
X001633Y023612D01*
X001690Y023612D01*
X001690Y023668D01*
X002176Y023668D01*
X002176Y023681D01*
X002164Y023761D01*
X002139Y023838D01*
X002102Y023910D01*
X002054Y023975D01*
X001997Y024033D01*
X001932Y024080D01*
X001859Y024117D01*
X001782Y024142D01*
X001702Y024155D01*
X001690Y024155D01*
X001690Y023669D01*
X001633Y023669D01*
X001633Y024155D01*
X001621Y024155D01*
X001541Y024142D01*
X001464Y024117D01*
X001392Y024080D01*
X001327Y024033D01*
X001208Y023882D02*
X000601Y023882D01*
X000601Y023724D02*
X001154Y023724D01*
X001153Y023565D02*
X000601Y023565D01*
X000601Y023407D02*
X001203Y023407D01*
X001326Y023248D02*
X000601Y023248D01*
X000601Y023090D02*
X002551Y023090D01*
X002407Y023248D02*
X001998Y023248D01*
X001997Y023248D02*
X002054Y023305D01*
X002102Y023370D01*
X002139Y023443D01*
X002164Y023520D01*
X002176Y023600D01*
X002176Y023612D01*
X001690Y023612D01*
X001690Y023126D01*
X001702Y023126D01*
X001782Y023138D01*
X001859Y023163D01*
X001932Y023200D01*
X001997Y023248D01*
X002120Y023407D02*
X002341Y023407D01*
X002305Y023565D02*
X002171Y023565D01*
X002170Y023724D02*
X002305Y023724D01*
X002345Y023882D02*
X002116Y023882D01*
X001986Y024041D02*
X002411Y024041D01*
X001690Y024041D02*
X001633Y024041D01*
X001633Y023882D02*
X001690Y023882D01*
X001690Y023724D02*
X001633Y023724D01*
X001633Y023565D02*
X001690Y023565D01*
X001690Y023407D02*
X001633Y023407D01*
X001633Y023248D02*
X001690Y023248D01*
X000601Y022931D02*
X002832Y022931D01*
X002851Y014601D02*
X003351Y014101D01*
X020601Y023601D02*
X020791Y023411D01*
X022351Y022351D02*
X023101Y021601D01*
X023549Y022138D02*
X023653Y022138D01*
X023811Y022297D02*
X023390Y022297D01*
X022951Y022455D02*
X024601Y022455D01*
X024601Y022297D02*
X024390Y022297D01*
X024549Y022138D02*
X024601Y022138D01*
X024601Y022614D02*
X022891Y022614D01*
X022778Y022772D02*
X024601Y022772D01*
X024601Y022931D02*
X023414Y022931D01*
X023573Y023090D02*
X024601Y023090D01*
X024601Y023248D02*
X023731Y023248D01*
X023796Y023407D02*
X024601Y023407D01*
X024601Y023565D02*
X023796Y023565D01*
X023796Y023724D02*
X024601Y023724D01*
X024601Y023882D02*
X023796Y023882D01*
X023644Y024041D02*
X024601Y024041D01*
X024601Y024199D02*
X023485Y024199D01*
X022787Y022931D02*
X022565Y022931D01*
D20*
X014851Y007601D02*
X013351Y007601D01*
X013284Y007475D01*
X014851Y007435D02*
X014851Y007601D01*
X016351Y005161D02*
X016351Y005101D01*
X015851Y004601D01*
X013851Y004601D01*
X013351Y005101D01*
X013351Y004975D01*
X011851Y005101D02*
X011851Y005161D01*
X011851Y005101D02*
X011351Y004601D01*
X009351Y004601D01*
X008851Y005101D01*
X008851Y004975D01*
X007351Y005101D02*
X007351Y005161D01*
X007351Y005101D02*
X006851Y004601D01*
X004851Y004601D01*
X004351Y005101D01*
X004351Y004975D01*
X004284Y007475D02*
X004351Y007601D01*
X005851Y007601D02*
X005851Y007435D01*
X008784Y007475D02*
X008851Y007601D01*
X010351Y007601D01*
X010351Y007435D01*
X002411Y010101D02*
X002351Y010101D01*
D21*
X003101Y023601D02*
X003061Y023640D01*
X003040Y023640D01*
X003101Y023601D02*
X004351Y023601D01*
X006351Y023601D01*
X009851Y023601D01*
X020601Y023601D01*
X023101Y023601D01*
X022351Y022351D02*
X021911Y022351D01*
X020791Y022351D02*
X020791Y023411D01*
X020101Y020601D02*
X023101Y020601D01*
D22*
X020101Y020601D03*
X009851Y023351D03*
X007351Y021101D03*
X006351Y023351D03*
X004351Y023351D03*
X002851Y021851D03*
X003351Y020601D03*
X003851Y019601D03*
X003351Y018101D03*
X004351Y017101D03*
X005351Y018101D03*
X007351Y017101D03*
X009851Y017601D03*
X004351Y012601D03*
X003351Y010101D03*
X005351Y009101D03*
X006351Y010101D03*
X006851Y009101D03*
X006851Y007101D03*
X004351Y006101D03*
X002851Y007601D03*
X000851Y013601D03*
X001851Y019101D03*
X001851Y020101D03*
X011101Y009101D03*
X011101Y006851D03*
X015851Y007101D03*
X015851Y008601D03*
X018601Y006851D03*
X020351Y006851D03*
X021851Y006851D03*
X023601Y006851D03*
X023601Y004601D03*
X021851Y004601D03*
X020351Y004601D03*
X018601Y004601D03*
X019851Y009601D03*
D23*
X023101Y023601D03*
M02*
