G75*
G70*
%OFA0B0*%
%FSLAX24Y24*%
%IPPOS*%
%LPD*%
%AMOC8*
5,1,8,0,0,1.08239X$1,22.5*
%
%ADD10C,0.0000*%
%ADD11R,0.0591X0.0512*%
D10*
X003296Y000101D02*
X003296Y025298D01*
X034788Y025298D01*
X034788Y000101D01*
X003296Y000101D01*
X011152Y013101D02*
X011154Y013140D01*
X011160Y013179D01*
X011170Y013217D01*
X011183Y013254D01*
X011200Y013289D01*
X011220Y013323D01*
X011244Y013354D01*
X011271Y013383D01*
X011300Y013409D01*
X011332Y013432D01*
X011366Y013452D01*
X011402Y013468D01*
X011439Y013480D01*
X011478Y013489D01*
X011517Y013494D01*
X011556Y013495D01*
X011595Y013492D01*
X011634Y013485D01*
X011671Y013474D01*
X011708Y013460D01*
X011743Y013442D01*
X011776Y013421D01*
X011807Y013396D01*
X011835Y013369D01*
X011860Y013339D01*
X011882Y013306D01*
X011901Y013272D01*
X011916Y013236D01*
X011928Y013198D01*
X011936Y013160D01*
X011940Y013121D01*
X011940Y013081D01*
X011936Y013042D01*
X011928Y013004D01*
X011916Y012966D01*
X011901Y012930D01*
X011882Y012896D01*
X011860Y012863D01*
X011835Y012833D01*
X011807Y012806D01*
X011776Y012781D01*
X011743Y012760D01*
X011708Y012742D01*
X011671Y012728D01*
X011634Y012717D01*
X011595Y012710D01*
X011556Y012707D01*
X011517Y012708D01*
X011478Y012713D01*
X011439Y012722D01*
X011402Y012734D01*
X011366Y012750D01*
X011332Y012770D01*
X011300Y012793D01*
X011271Y012819D01*
X011244Y012848D01*
X011220Y012879D01*
X011200Y012913D01*
X011183Y012948D01*
X011170Y012985D01*
X011160Y013023D01*
X011154Y013062D01*
X011152Y013101D01*
D11*
X021296Y013266D03*
X021296Y013935D03*
X023296Y013935D03*
X023296Y013266D03*
X025796Y010435D03*
X025796Y009766D03*
X027796Y009766D03*
X027796Y010435D03*
X028296Y016766D03*
X028296Y017435D03*
X026296Y017435D03*
X026296Y016766D03*
X023296Y019766D03*
X023296Y020435D03*
X021296Y020435D03*
X021296Y019766D03*
M02*
