%
M48
M72
T01C0.0236
T02C0.0240
T03C0.0394
T04C0.0787
%
T01
X23000Y19000
X18000Y15500
X18000Y22000
X22500Y12000
X26000Y15500
X28000Y21000
X8750Y1750
X5000Y2250
X8750Y6000
X2750Y3750
X9750Y5000
X12000Y5500
X27500Y9000
X27500Y5000
X26750Y9000
X26750Y5500
X6000Y16000
X6000Y10500
X12000Y15500
X12000Y17500
X7500Y11000
X7500Y13500
X6500Y11000
X7000Y12500
X9500Y10000
X9500Y13000
X5000Y20000
X9000Y16500
X3500Y19000
X3500Y15000
X4500Y18000
X4500Y14000
X4000Y16000
X4000Y8500
X3500Y14000
X3500Y9000
X4500Y13000
X4500Y8000
X5500Y12000
X5500Y7500
X5000Y11000
X6500Y17500
X11000Y9500
X11000Y13500
X4000Y1750
X4000Y5750
X6250Y5000
X6250Y2250
X28500Y6500
X28500Y12500
T02
X16000Y6000
X14000Y7500
X23000Y15000
X18000Y11500
X18000Y18000
X21000Y8000
X20000Y15500
X21000Y9000
X25000Y19000
X24500Y12000
T03
X2000Y21500
X1000Y21500
X2000Y20500
X1000Y20500
X2000Y19500
X1000Y19500
X2000Y18500
X1000Y18500
X2000Y17500
X1000Y17500
X2000Y16500
X1000Y16500
X2000Y15500
X1000Y15500
X2000Y14500
X1000Y14500
X2000Y13500
X1000Y13500
X2000Y12500
X1000Y12500
X2000Y11500
X1000Y11500
X2000Y10500
X1000Y10500
X2000Y9500
X1000Y9500
X2000Y8500
X1000Y8500
X30500Y21500
X29500Y21500
X30500Y20500
X29500Y20500
X30500Y19500
X29500Y19500
X30500Y18500
X29500Y18500
X30500Y17500
X29500Y17500
X30500Y16500
X29500Y16500
X30500Y15500
X29500Y15500
X30500Y14500
X29500Y14500
X30500Y13500
X29500Y13500
X30500Y12500
X29500Y12500
X30500Y11500
X29500Y11500
X30500Y10500
X29500Y10500
X30500Y9500
X29500Y9500
X30500Y8500
X29500Y8500
X29500Y23500
T04
X8250Y13000
M30
