G75*
G70*
%OFA0B0*%
%FSLAX24Y24*%
%IPPOS*%
%LPD*%
%AMOC8*
5,1,8,0,0,1.08239X$1,22.5*
%
%ADD10C,0.0000*%
%ADD11C,0.0040*%
D10*
X003296Y000101D02*
X003296Y025298D01*
X034788Y025298D01*
X034788Y000101D01*
X003296Y000101D01*
X011152Y013101D02*
X011154Y013140D01*
X011160Y013179D01*
X011170Y013217D01*
X011183Y013254D01*
X011200Y013289D01*
X011220Y013323D01*
X011244Y013354D01*
X011271Y013383D01*
X011300Y013409D01*
X011332Y013432D01*
X011366Y013452D01*
X011402Y013468D01*
X011439Y013480D01*
X011478Y013489D01*
X011517Y013494D01*
X011556Y013495D01*
X011595Y013492D01*
X011634Y013485D01*
X011671Y013474D01*
X011708Y013460D01*
X011743Y013442D01*
X011776Y013421D01*
X011807Y013396D01*
X011835Y013369D01*
X011860Y013339D01*
X011882Y013306D01*
X011901Y013272D01*
X011916Y013236D01*
X011928Y013198D01*
X011936Y013160D01*
X011940Y013121D01*
X011940Y013081D01*
X011936Y013042D01*
X011928Y013004D01*
X011916Y012966D01*
X011901Y012930D01*
X011882Y012896D01*
X011860Y012863D01*
X011835Y012833D01*
X011807Y012806D01*
X011776Y012781D01*
X011743Y012760D01*
X011708Y012742D01*
X011671Y012728D01*
X011634Y012717D01*
X011595Y012710D01*
X011556Y012707D01*
X011517Y012708D01*
X011478Y012713D01*
X011439Y012722D01*
X011402Y012734D01*
X011366Y012750D01*
X011332Y012770D01*
X011300Y012793D01*
X011271Y012819D01*
X011244Y012848D01*
X011220Y012879D01*
X011200Y012913D01*
X011183Y012948D01*
X011170Y012985D01*
X011160Y013023D01*
X011154Y013062D01*
X011152Y013101D01*
D11*
X020416Y013127D02*
X020416Y013280D01*
X020492Y013357D01*
X020492Y013510D02*
X020416Y013510D01*
X020492Y013510D02*
X020799Y013817D01*
X020876Y013817D01*
X020876Y013510D01*
X020799Y013357D02*
X020876Y013280D01*
X020876Y013127D01*
X020799Y013050D01*
X020492Y013050D01*
X020416Y013127D01*
X022416Y013127D02*
X022416Y013280D01*
X022492Y013357D01*
X022492Y013510D02*
X022416Y013587D01*
X022416Y013741D01*
X022492Y013817D01*
X022569Y013817D01*
X022646Y013741D01*
X022646Y013587D01*
X022723Y013510D01*
X022799Y013510D01*
X022876Y013587D01*
X022876Y013741D01*
X022799Y013817D01*
X022723Y013817D01*
X022646Y013741D01*
X022646Y013587D02*
X022569Y013510D01*
X022492Y013510D01*
X022799Y013357D02*
X022876Y013280D01*
X022876Y013127D01*
X022799Y013050D01*
X022492Y013050D01*
X022416Y013127D01*
X024992Y010317D02*
X024916Y010241D01*
X024916Y010087D01*
X024992Y010010D01*
X024916Y009857D02*
X024916Y009550D01*
X024916Y009703D02*
X025376Y009703D01*
X025223Y009550D01*
X025299Y009397D02*
X025376Y009320D01*
X025376Y009166D01*
X025299Y009090D01*
X024992Y009090D01*
X024916Y009166D01*
X024916Y009320D01*
X024992Y009397D01*
X025299Y010010D02*
X025376Y010087D01*
X025376Y010241D01*
X025299Y010317D01*
X025223Y010317D01*
X025146Y010241D01*
X025069Y010317D01*
X024992Y010317D01*
X025146Y010241D02*
X025146Y010164D01*
X026916Y010241D02*
X027376Y010241D01*
X027146Y010010D01*
X027146Y010317D01*
X026916Y009857D02*
X026916Y009550D01*
X026916Y009703D02*
X027376Y009703D01*
X027223Y009550D01*
X027299Y009397D02*
X027376Y009320D01*
X027376Y009166D01*
X027299Y009090D01*
X026992Y009090D01*
X026916Y009166D01*
X026916Y009320D01*
X026992Y009397D01*
X027492Y016090D02*
X027416Y016166D01*
X027416Y016320D01*
X027492Y016397D01*
X027416Y016550D02*
X027416Y016857D01*
X027416Y017010D02*
X027723Y017317D01*
X027799Y017317D01*
X027876Y017241D01*
X027876Y017087D01*
X027799Y017010D01*
X027876Y016703D02*
X027416Y016703D01*
X027416Y017010D02*
X027416Y017317D01*
X027876Y016703D02*
X027723Y016550D01*
X027799Y016397D02*
X027876Y016320D01*
X027876Y016166D01*
X027799Y016090D01*
X027492Y016090D01*
X025876Y016166D02*
X025799Y016090D01*
X025492Y016090D01*
X025416Y016166D01*
X025416Y016320D01*
X025492Y016397D01*
X025416Y016550D02*
X025416Y016857D01*
X025416Y017010D02*
X025416Y017317D01*
X025416Y017164D02*
X025876Y017164D01*
X025723Y017010D01*
X025876Y016703D02*
X025416Y016703D01*
X025723Y016550D02*
X025876Y016703D01*
X025799Y016397D02*
X025876Y016320D01*
X025876Y016166D01*
X022799Y019550D02*
X022492Y019550D01*
X022416Y019627D01*
X022416Y019780D01*
X022492Y019857D01*
X022492Y020010D02*
X022416Y020087D01*
X022416Y020241D01*
X022492Y020317D01*
X022569Y020317D01*
X022646Y020241D01*
X022646Y020010D01*
X022492Y020010D01*
X022646Y020010D02*
X022799Y020164D01*
X022876Y020317D01*
X022799Y019857D02*
X022876Y019780D01*
X022876Y019627D01*
X022799Y019550D01*
X020876Y019627D02*
X020799Y019550D01*
X020492Y019550D01*
X020416Y019627D01*
X020416Y019780D01*
X020492Y019857D01*
X020492Y020010D02*
X020416Y020087D01*
X020416Y020241D01*
X020492Y020317D01*
X020646Y020317D01*
X020723Y020241D01*
X020723Y020164D01*
X020646Y020010D01*
X020876Y020010D01*
X020876Y020317D01*
X020799Y019857D02*
X020876Y019780D01*
X020876Y019627D01*
M02*
