G75*
G70*
%OFA0B0*%
%FSLAX24Y24*%
%IPPOS*%
%LPD*%
%AMOC8*
5,1,8,0,0,1.08239X$1,22.5*
%
%ADD10C,0.0000*%
%ADD11R,0.0846X0.0217*%
%ADD12R,0.0846X0.1358*%
%ADD13R,0.0710X0.0630*%
%ADD14R,0.0512X0.0591*%
%ADD15R,0.0591X0.0512*%
%ADD16R,0.0472X0.0157*%
%ADD17R,0.0780X0.0220*%
D10*
X003296Y000101D02*
X003296Y025298D01*
X034788Y025298D01*
X034788Y000101D01*
X003296Y000101D01*
X011152Y013101D02*
X011154Y013140D01*
X011160Y013179D01*
X011170Y013217D01*
X011183Y013254D01*
X011200Y013289D01*
X011220Y013323D01*
X011244Y013354D01*
X011271Y013383D01*
X011300Y013409D01*
X011332Y013432D01*
X011366Y013452D01*
X011402Y013468D01*
X011439Y013480D01*
X011478Y013489D01*
X011517Y013494D01*
X011556Y013495D01*
X011595Y013492D01*
X011634Y013485D01*
X011671Y013474D01*
X011708Y013460D01*
X011743Y013442D01*
X011776Y013421D01*
X011807Y013396D01*
X011835Y013369D01*
X011860Y013339D01*
X011882Y013306D01*
X011901Y013272D01*
X011916Y013236D01*
X011928Y013198D01*
X011936Y013160D01*
X011940Y013121D01*
X011940Y013081D01*
X011936Y013042D01*
X011928Y013004D01*
X011916Y012966D01*
X011901Y012930D01*
X011882Y012896D01*
X011860Y012863D01*
X011835Y012833D01*
X011807Y012806D01*
X011776Y012781D01*
X011743Y012760D01*
X011708Y012742D01*
X011671Y012728D01*
X011634Y012717D01*
X011595Y012710D01*
X011556Y012707D01*
X011517Y012708D01*
X011478Y012713D01*
X011439Y012722D01*
X011402Y012734D01*
X011366Y012750D01*
X011332Y012770D01*
X011300Y012793D01*
X011271Y012819D01*
X011244Y012848D01*
X011220Y012879D01*
X011200Y012913D01*
X011183Y012948D01*
X011170Y012985D01*
X011160Y013023D01*
X011154Y013062D01*
X011152Y013101D01*
D11*
X007266Y004851D03*
X007266Y004351D03*
X007266Y003851D03*
X007266Y003351D03*
X007266Y002851D03*
D12*
X004825Y003851D03*
D13*
X008546Y005041D03*
X008546Y006161D03*
X010296Y006161D03*
X010296Y005041D03*
X010296Y003911D03*
X010296Y002791D03*
X012046Y002791D03*
X012046Y003911D03*
D14*
X012130Y005101D03*
X011461Y005101D03*
X009130Y001601D03*
X008461Y001601D03*
X005880Y001601D03*
X005211Y001601D03*
X016961Y009601D03*
X017630Y009601D03*
X019461Y005101D03*
X020130Y005101D03*
D15*
X015296Y009266D03*
X015296Y009935D03*
X008546Y003935D03*
X008546Y003266D03*
D16*
X016252Y005601D03*
X016252Y006101D03*
X016252Y006601D03*
X016252Y007101D03*
X016252Y007601D03*
X016252Y008101D03*
X016252Y008601D03*
X018339Y008601D03*
X018339Y008101D03*
X018339Y007601D03*
X018339Y007101D03*
X018339Y006601D03*
X018339Y006101D03*
X018339Y005601D03*
X025752Y008601D03*
X025752Y009101D03*
X025752Y009601D03*
X025752Y010101D03*
X025752Y010601D03*
X025752Y011101D03*
X025752Y011601D03*
X027839Y011601D03*
X027839Y011101D03*
X027839Y010601D03*
X027839Y010101D03*
X027839Y009601D03*
X027839Y009101D03*
X027839Y008601D03*
X023339Y012101D03*
X023339Y012601D03*
X023339Y013101D03*
X023339Y013601D03*
X023339Y014101D03*
X023339Y014601D03*
X023339Y015101D03*
X021252Y015101D03*
X021252Y014601D03*
X021252Y014101D03*
X021252Y013601D03*
X021252Y013101D03*
X021252Y012601D03*
X021252Y012101D03*
X026252Y015601D03*
X026252Y016101D03*
X026252Y016601D03*
X026252Y017101D03*
X026252Y017601D03*
X026252Y018101D03*
X026252Y018601D03*
X028339Y018601D03*
X028339Y018101D03*
X028339Y017601D03*
X028339Y017101D03*
X028339Y016601D03*
X028339Y016101D03*
X028339Y015601D03*
X023339Y018601D03*
X023339Y019101D03*
X023339Y019601D03*
X023339Y020101D03*
X023339Y020601D03*
X023339Y021101D03*
X023339Y021601D03*
X021252Y021601D03*
X021252Y021101D03*
X021252Y020601D03*
X021252Y020101D03*
X021252Y019601D03*
X021252Y019101D03*
X021252Y018601D03*
D17*
X021366Y008101D03*
X021366Y007601D03*
X021366Y007101D03*
X021366Y006601D03*
X021366Y006101D03*
X021366Y005601D03*
X021366Y005101D03*
X023226Y005101D03*
X023226Y005601D03*
X023226Y006101D03*
X023226Y006601D03*
X023226Y007101D03*
X023226Y007601D03*
X023226Y008101D03*
M02*
