G75*
G70*
%OFA0B0*%
%FSLAX24Y24*%
%IPPOS*%
%LPD*%
%AMOC8*
5,1,8,0,0,1.08239X$1,22.5*
%
%ADD10C,0.0000*%
%ADD11C,0.0827*%
%ADD12OC8,0.0634*%
%ADD13R,0.0631X0.0552*%
D10*
X003296Y000101D02*
X003296Y025298D01*
X034788Y025298D01*
X034788Y000101D01*
X003296Y000101D01*
X011152Y013101D02*
X011154Y013140D01*
X011160Y013179D01*
X011170Y013217D01*
X011183Y013254D01*
X011200Y013289D01*
X011220Y013323D01*
X011244Y013354D01*
X011271Y013383D01*
X011300Y013409D01*
X011332Y013432D01*
X011366Y013452D01*
X011402Y013468D01*
X011439Y013480D01*
X011478Y013489D01*
X011517Y013494D01*
X011556Y013495D01*
X011595Y013492D01*
X011634Y013485D01*
X011671Y013474D01*
X011708Y013460D01*
X011743Y013442D01*
X011776Y013421D01*
X011807Y013396D01*
X011835Y013369D01*
X011860Y013339D01*
X011882Y013306D01*
X011901Y013272D01*
X011916Y013236D01*
X011928Y013198D01*
X011936Y013160D01*
X011940Y013121D01*
X011940Y013081D01*
X011936Y013042D01*
X011928Y013004D01*
X011916Y012966D01*
X011901Y012930D01*
X011882Y012896D01*
X011860Y012863D01*
X011835Y012833D01*
X011807Y012806D01*
X011776Y012781D01*
X011743Y012760D01*
X011708Y012742D01*
X011671Y012728D01*
X011634Y012717D01*
X011595Y012710D01*
X011556Y012707D01*
X011517Y012708D01*
X011478Y012713D01*
X011439Y012722D01*
X011402Y012734D01*
X011366Y012750D01*
X011332Y012770D01*
X011300Y012793D01*
X011271Y012819D01*
X011244Y012848D01*
X011220Y012879D01*
X011200Y012913D01*
X011183Y012948D01*
X011170Y012985D01*
X011160Y013023D01*
X011154Y013062D01*
X011152Y013101D01*
D11*
X011546Y013101D03*
D12*
X005296Y013601D03*
X004296Y013601D03*
X004296Y014601D03*
X005296Y014601D03*
X005296Y015601D03*
X004296Y015601D03*
X004296Y016601D03*
X005296Y016601D03*
X005296Y017601D03*
X004296Y017601D03*
X004296Y018601D03*
X005296Y018601D03*
X005296Y019601D03*
X004296Y019601D03*
X004296Y020601D03*
X005296Y020601D03*
X005296Y021601D03*
X004296Y021601D03*
X004296Y012601D03*
X005296Y012601D03*
X005296Y011601D03*
X004296Y011601D03*
X004296Y010601D03*
X005296Y010601D03*
X005296Y009601D03*
X004296Y009601D03*
X004296Y008601D03*
X005296Y008601D03*
X032796Y008601D03*
X033796Y008601D03*
X033796Y009601D03*
X032796Y009601D03*
X032796Y010601D03*
X033796Y010601D03*
X033796Y011601D03*
X032796Y011601D03*
X032796Y012601D03*
X033796Y012601D03*
X033796Y013601D03*
X032796Y013601D03*
X032796Y014601D03*
X033796Y014601D03*
X033796Y015601D03*
X032796Y015601D03*
X032796Y016601D03*
X033796Y016601D03*
X033796Y017601D03*
X032796Y017601D03*
X032796Y018601D03*
X033796Y018601D03*
X033796Y019601D03*
X032796Y019601D03*
X032796Y020601D03*
X033796Y020601D03*
X033796Y021601D03*
X032796Y021601D03*
D13*
X028296Y017435D03*
X028296Y016766D03*
X026296Y016766D03*
X026296Y017435D03*
X023296Y019766D03*
X023296Y020435D03*
X021296Y020435D03*
X021296Y019766D03*
X021296Y013935D03*
X021296Y013266D03*
X023296Y013266D03*
X023296Y013935D03*
X025796Y010435D03*
X025796Y009766D03*
X027796Y009766D03*
X027796Y010435D03*
M02*
